<svg version="1.1" id="Layer_1" xmlns="http://www.w3.org/2000/svg" xmlns:xlink="http://www.w3.org/1999/xlink" x="0px" y="0px"
	 width="100%" viewBox="0 0 560 288" enable-background="new 0 0 560 288" xml:space="preserve">
<path fill="#000000" opacity="1.000000" stroke="none" 
	d="
M386.277527,220.759995 
	C371.455627,208.810913 364.370728,193.365387 363.777740,174.931030 
	C363.424286,163.942795 363.646790,152.933960 363.707153,141.934921 
	C363.847076,116.437416 378.587769,94.950935 402.638702,86.311752 
	C423.786865,78.715263 455.342743,82.043175 471.681030,102.950935 
	C480.460693,114.186127 482.702820,127.283714 483.864471,140.828033 
	C484.106903,143.654678 482.659454,145.148834 479.691681,145.141235 
	C468.192566,145.111832 456.693085,145.098373 445.194153,145.157547 
	C441.168274,145.178268 440.838959,142.617783 440.637024,139.509384 
	C440.120300,131.554871 436.610291,126.978409 429.890991,125.085999 
	C421.820007,122.812912 414.346497,124.973824 410.022186,130.652054 
	C407.793091,133.579117 406.718384,137.049683 406.648071,140.436890 
	C406.385803,153.069336 405.231934,165.766144 407.264954,178.329376 
	C408.913666,188.517685 415.216675,192.553177 427.518677,192.053574 
	C435.844055,191.715469 441.034485,186.599457 441.452057,176.924286 
	C441.668945,171.898544 443.503387,170.757690 448.036407,170.864212 
	C458.196869,171.102997 468.368256,171.028214 478.532349,170.881775 
	C482.550507,170.823898 484.250916,172.297272 484.187164,176.439285 
	C483.732574,205.979477 466.450348,228.456604 437.152954,232.502197 
	C418.673798,235.053940 401.699646,232.401871 386.277527,220.759995 
z"/>
<path fill="#000000" opacity="1.000000" stroke="none" 
	d="
M225.817749,129.999969 
	C225.819138,117.001801 225.934662,104.502052 225.761414,92.006310 
	C225.699951,87.573410 227.173080,85.713707 231.816818,85.754982 
	C250.645859,85.922371 269.480011,85.622871 288.307037,85.880386 
	C314.792175,86.242661 335.494781,105.234711 336.909851,131.452942 
	C337.925262,150.266891 329.996582,165.384949 314.020996,175.882278 
	C311.807953,177.336411 309.434631,178.546616 307.145874,179.863770 
	C306.780426,182.296463 308.586273,183.612320 309.675507,185.150848 
	C319.012604,198.339325 328.446442,211.459229 337.819031,224.622681 
	C338.852631,226.074295 340.668335,227.546616 339.846344,229.449814 
	C338.874634,231.699814 336.408295,231.063522 334.496338,231.065125 
	C300.501404,231.093597 266.506378,231.098160 232.511459,231.050629 
	C226.346283,231.042007 225.812180,230.418365 225.809219,223.986389 
	C225.794891,192.824249 225.812073,161.662125 225.817749,129.999969 
M311.007874,159.525253 
	C321.670990,149.166412 325.360107,136.817413 320.222443,122.748146 
	C314.957520,108.330330 303.743286,101.322861 287.178650,101.101402 
	C276.366852,100.956856 265.552643,100.958069 254.739670,100.978317 
	C253.368240,100.980881 251.756882,100.215698 250.425491,101.843506 
	C250.805969,102.528427 251.131088,103.275414 251.594223,103.923798 
	C264.546814,122.056786 277.501709,140.188156 290.482147,158.301224 
	C297.965027,168.742920 299.374786,168.900009 309.747437,160.678558 
	C310.007690,160.472290 310.245697,160.237946 311.007874,159.525253 
M240.318527,190.727646 
	C240.316956,197.052994 240.588730,203.394043 240.226242,209.698639 
	C239.942459,214.634293 241.895203,215.964767 246.575592,215.917068 
	C266.714813,215.711823 286.857147,215.824677 306.998108,215.757904 
	C308.724762,215.752167 310.669159,216.354782 312.132538,214.836899 
	C312.228210,213.075272 311.035095,212.025345 310.190460,210.836151 
	C305.083069,203.645218 299.675598,196.649033 294.918091,189.235077 
	C292.216370,185.024811 289.010529,183.697723 284.191193,183.799286 
	C271.713196,184.062271 259.224152,183.943268 246.741745,183.793121 
	C240.446777,183.717422 240.448944,183.537201 240.318527,190.727646 
M240.323120,164.082581 
	C240.018219,167.510849 241.604904,168.866165 245.010742,168.828384 
	C255.005447,168.717529 265.002045,168.784851 274.997742,168.741974 
	C276.258911,168.736542 277.745239,169.053696 278.709198,166.657104 
	C266.557953,149.563004 254.165024,132.128891 241.772095,114.694778 
	C241.286896,114.906525 240.801697,115.118271 240.316498,115.330025 
	C240.316498,131.276260 240.316498,147.222488 240.323120,164.082581 
z"/>
<path fill="#000000" opacity="1.000000" stroke="none" 
	d="
M97.000000,231.085617 
	C87.166733,231.075256 77.832970,231.118423 68.500404,231.032150 
	C63.206879,230.983231 62.622257,229.913391 64.851845,225.068527 
	C86.229378,178.615387 107.599579,132.158875 128.988586,85.711029 
	C129.877869,83.779884 130.515427,81.652214 132.311050,80.313568 
	C134.632446,80.888924 134.879547,82.890770 135.617264,84.491005 
	C156.534286,129.863373 177.432251,175.244492 198.363892,220.610107 
	C203.212112,231.117722 203.263168,231.093597 191.499924,231.092545 
	C160.166611,231.089737 128.833313,231.087463 97.000000,231.085617 
M106.152504,170.567383 
	C99.361839,185.314926 92.571167,200.062469 85.507416,215.403076 
	C117.204437,215.403076 148.007797,215.403076 179.802368,215.403076 
	C164.097229,181.309158 148.726746,147.941696 133.356262,114.574242 
	C132.842499,114.630508 132.328735,114.686775 131.814972,114.743042 
	C123.347572,133.114624 114.880165,151.486191 106.152504,170.567383 
z"/>
</svg>