<?xml version="1.0" encoding="utf-8"?>
<!-- Generator: Adobe Illustrator 27.5.0, SVG Export Plug-In . SVG Version: 6.00 Build 0)  -->
<svg version="1.1" xmlns="http://www.w3.org/2000/svg" xmlns:xlink="http://www.w3.org/1999/xlink" x="0px" y="0px"
	 viewBox="0 0 500 500" style="enable-background:new 0 0 500 500;" xml:space="preserve">
<g id="Background_Simple">
	<g>
		<path style="fill:#C6FF00;" d="M374.765,165.747c-8.459-10.104-17.342-19.962-25.447-30.403
			c-23.714-30.549-54.918-59.95-94.321-68.17c-39.882-8.319-87.365,5.828-111.435,39.84c-15.984,22.586-22.254,50.654-22.81,77.96
			c-0.254,12.472,1.885,25.088-0.126,37.494c-2.214,13.656-9.871,25.618-16.574,37.458c-8.857,15.645-12.685,32.872-7.3,50.512
			c12.164,39.852,67.119,58.373,104.864,51.701c20.586-3.639,39.447-13.609,59.383-19.899c16.438-5.187,33.361-6.698,50.072-1.739
			c38.08,11.302,77.078-8.178,93.212-44.011c19.469-43.241,1.251-92.335-26.645-127.231
			C376.694,168.077,375.736,166.907,374.765,165.747z"/>
		<path style="opacity:0.7;fill:#FFFFFF;" d="M374.765,165.747c-8.459-10.104-17.342-19.962-25.447-30.403
			c-23.714-30.549-54.918-59.95-94.321-68.17c-39.882-8.319-87.365,5.828-111.435,39.84c-15.984,22.586-22.254,50.654-22.81,77.96
			c-0.254,12.472,1.885,25.088-0.126,37.494c-2.214,13.656-9.871,25.618-16.574,37.458c-8.857,15.645-12.685,32.872-7.3,50.512
			c12.164,39.852,67.119,58.373,104.864,51.701c20.586-3.639,39.447-13.609,59.383-19.899c16.438-5.187,33.361-6.698,50.072-1.739
			c38.08,11.302,77.078-8.178,93.212-44.011c19.469-43.241,1.251-92.335-26.645-127.231
			C376.694,168.077,375.736,166.907,374.765,165.747z"/>
	</g>
</g>
<g id="Shadow">
	<g>
		<ellipse style="fill:#C6FF00;" cx="248.242" cy="401.477" rx="142.834" ry="27.601"/>
		<ellipse style="opacity:0.5;fill:#FFFFFF;" cx="248.242" cy="401.477" rx="142.834" ry="27.601"/>
	</g>
</g>
<g id="Progressbar">
	<g>
		<path style="fill:#FFFFFF;stroke:#263238;stroke-miterlimit:10;" d="M203,301.333h107.333c2.577,0,4.667-2.089,4.667-4.667V288
			c0-2.577-2.089-4.667-4.667-4.667H203c-2.577,0-4.667,2.089-4.667,4.667v8.667C198.333,299.244,200.423,301.333,203,301.333z"/>
		<rect x="203" y="285.209" style="fill:#C6FF00;" width="7.333" height="14.791"/>
		<rect x="212.14" y="285.209" style="fill:#C6FF00;" width="7.333" height="14.791"/>
		<rect x="221.28" y="285.209" style="fill:#C6FF00;" width="7.333" height="14.791"/>
		<rect x="230.42" y="285.209" style="fill:#C6FF00;" width="7.333" height="14.791"/>
		<rect x="239.561" y="285.209" style="fill:#C6FF00;" width="7.333" height="14.791"/>
		<rect x="248.701" y="285.209" style="fill:#C6FF00;" width="7.333" height="14.791"/>
		<rect x="257.841" y="285.209" style="fill:#C6FF00;" width="7.333" height="14.791"/>
		<rect x="266.981" y="285.209" style="fill:#C6FF00;" width="7.333" height="14.791"/>
	</g>
</g>
<g id="Gear_1">
	<g>
		
			<path id="XMLID_162_" style="fill:#C6FF00;stroke:#263238;stroke-width:1.0834;stroke-linecap:round;stroke-linejoin:round;stroke-miterlimit:10;" d="
			M272.713,161.01l9.609-4.378l-2.034-11.537l-10.601-0.823c-1.361-3.581-3.15-6.949-5.306-10.046l5.466-9.231l-8.284-8.284
			l-9.304,5.524c-5.253-3.565-11.276-6.073-17.764-7.249l-2.689-10.627H220.09l-2.697,10.695c-3.684,0.7-7.212,1.834-10.535,3.346
			l-8.375-7.249l-9.597,6.719l3.955,10.364c-2.571,2.627-4.834,5.555-6.729,8.73l-11.029-1.137l-4.007,11.009l9.131,6.194
			c-0.426,2.53-0.659,5.126-0.659,7.777c0,1.108,0.053,2.203,0.129,3.292l-9.608,5.364l3.032,11.316l10.876-0.14
			c1.609,3.414,3.619,6.6,5.971,9.499l-4.694,9.754l8.974,7.53l8.697-6.229c3.264,1.88,6.776,3.373,10.477,4.423l1.744,10.491
			l11.671,1.021l3.52-9.934c3.903-0.349,7.666-1.18,11.233-2.432l7.364,7.483l10.146-5.858l-2.786-10.09
			c2.935-2.497,5.554-5.351,7.794-8.496l10.308,1.9l4.951-10.618l-8.085-6.677C272.195,168.762,272.696,164.943,272.713,161.01z
			 M255.384,160.808c0,16.155-13.096,29.251-29.251,29.251c-16.155,0-29.251-13.096-29.251-29.251s13.096-29.251,29.251-29.251
			C242.288,131.557,255.384,144.653,255.384,160.808z"/>
		<g>
			
				<path id="XMLID_1_" style="fill:none;stroke:#263238;stroke-width:3.2501;stroke-linecap:round;stroke-linejoin:round;stroke-miterlimit:10;" d="
				M159.669,172.138c0.543,3.453,1.348,6.819,2.393,10.077"/>
			<g id="XMLID_150_">
				<g>
					<path style="fill:none;stroke:#263238;stroke-width:3.2501;stroke-linecap:round;stroke-linejoin:round;" d="M277.771,117.463
						c-12.403-14.421-30.783-23.553-51.296-23.553c-37.352,0-67.631,30.279-67.631,67.631c0,0.617,0.008,1.232,0.025,1.845"/>
					<g>
						<polygon style="fill:#263238;" points="282.312,111.324 284.102,126.123 270.39,120.276 						"/>
					</g>
				</g>
			</g>
		</g>
	</g>
</g>
<g id="Gear_2">
	<g>
		
			<path id="XMLID_36_" style="fill:#C6FF00;stroke:#263238;stroke-width:1.0834;stroke-linecap:round;stroke-linejoin:round;stroke-miterlimit:10;" d="
			M352.222,213.686l8.206-2.443l-2.116-11.999l-8.609,0.515c-1.132-2.98-2.621-5.782-4.414-8.358l5.409-6.818l-8.615-8.615
			l-6.879,5.457c-4.371-2.966-9.382-5.053-14.78-6.031l-1.019-8.842h-12.184l-1.026,8.898c-3.065,0.582-6.001,1.526-8.765,2.784
			l-5.97-6.73l-9.98,6.988l4.289,7.924c-2.139,2.186-4.022,4.622-5.599,7.263l-8.76-2.091l-4.167,11.449l8.013,4.009
			c-0.354,2.105-0.548,4.265-0.548,6.471c0,0.922,0.044,1.833,0.107,2.739l-8.309,3.286l3.153,11.769l8.734-1.293
			c1.339,2.84,3.011,5.491,4.968,7.903l-4.839,7.332l9.333,7.832l6.303-5.965c2.716,1.564,5.637,2.807,8.716,3.68l0.237,8.622
			l12.137,1.062l1.715-8.372c3.248-0.291,6.379-0.981,9.346-2.023l5.072,6.835l10.552-6.092l-3.373-7.786
			c2.442-2.077,4.621-4.452,6.485-7.068l8.061,2.685l5.149-11.042l-7.242-4.451C351.792,220.136,352.208,216.958,352.222,213.686z
			 M337.805,213.518c0,13.441-10.896,24.337-24.337,24.337c-13.441,0-24.337-10.896-24.337-24.337
			c0-13.441,10.896-24.337,24.337-24.337C326.908,189.181,337.805,200.077,337.805,213.518z"/>
		<g id="XMLID_34_">
			<g>
				<path style="fill:none;stroke:#263238;stroke-width:3.2501;stroke-linecap:round;stroke-linejoin:round;" d="M363.877,190.293
					c6.604,13.721,7.653,30.06,1.559,45.315c-11.535,28.874-44.293,42.931-73.167,31.396c-5.574-2.227-10.596-5.245-14.989-8.873"/>
				<g>
					<polygon style="fill:#263238;" points="358.377,196.019 358.329,181.113 371.264,188.522 					"/>
				</g>
			</g>
		</g>
	</g>
</g>
<g id="Character">
	<g>
		<ellipse style="fill:#263238;" cx="175.667" cy="401.333" rx="51.667" ry="13"/>
		<g>
			
				<path id="XMLID_142_" style="fill:#FFFFFF;stroke:#263238;stroke-width:1.0834;stroke-linecap:round;stroke-linejoin:round;stroke-miterlimit:10;" d="
				M284.516,390.515c0.046-0.582,0.078-1.168,0.078-1.76c0-13.986-13.157-25.324-29.386-25.324
				c-16.23,0-29.386,11.338-29.386,25.324c0,0.592,0.032,1.178,0.078,1.76H284.516z"/>
			
				<path id="XMLID_85_" style="fill:#263238;stroke:#263238;stroke-width:1.0834;stroke-linecap:round;stroke-linejoin:round;stroke-miterlimit:10;" d="
				M284.516,392.922c0.046-0.582,0.078-1.168,0.078-1.76c0-13.986-13.157-25.324-29.386-25.324
				c-16.23,0-29.386,11.338-29.386,25.324c0,0.592,0.032,1.178,0.078,1.76H284.516z"/>
		</g>
		<g>
			
				<path id="XMLID_144_" style="fill:#FFFFFF;stroke:#263238;stroke-width:1.0834;stroke-linecap:round;stroke-linejoin:round;stroke-miterlimit:10;" d="
				M192.067,229.549l20.212,31.954l22.209-12.459l1.354,10.834c0,0-21.396,16.792-24.376,18.146
				c-2.979,1.354-8.396,0.542-9.75-1.083c-1.354-1.625-12.73-41.981-12.73-41.981S187.022,227.388,192.067,229.549z"/>
			
				<polygon id="XMLID_145_" style="fill:#C6FF00;stroke:#263238;stroke-width:1.0834;stroke-linecap:round;stroke-linejoin:round;stroke-miterlimit:10;" points="
				233.405,247.42 217.967,257.17 226.183,273.15 239.093,259.066 237.739,244.169 			"/>
		</g>
		<g>
			
				<path id="XMLID_139_" style="fill:#263238;stroke:#263238;stroke-width:1.0834;stroke-linecap:round;stroke-linejoin:round;stroke-miterlimit:10;" d="
				M169.701,304.32l37.704,37.894c0,0-9.479,8.938-16.251,16.521c-6.771,7.584-17.876,17.334-17.876,17.334l3.792,4.604
				c0,0,43.876-33.043,46.043-35.21c2.167-2.167,2.167-6.5,1.625-12.188c-0.542-5.688-16.521-50.377-16.521-50.377L169.701,304.32z"
				/>
			<g>
				
					<path id="XMLID_83_" style="fill:#C6FF00;stroke:#263238;stroke-width:1.0834;stroke-linecap:round;stroke-linejoin:round;stroke-miterlimit:10;" d="
					M189.862,353.56l9.116,15.954l-18.518,9.686c0,0-1.14,3.419,0,6.552c1.139,3.134,3.988,6.267,4.273,7.977
					c0.285,1.709,0.57,2.564-3.134,2.564c-3.704,0-7.692-3.134-9.686-5.413s-2.279-8.547-3.988-11.111
					c-1.709-2.564-4.558-6.267-2.279-9.686c2.279-3.419,6.837-3.988,6.837-3.988L189.862,353.56z"/>
				
					<path style="fill:#263238;stroke:#263238;stroke-width:1.0834;stroke-linecap:round;stroke-linejoin:round;stroke-miterlimit:10;" d="
					M184.084,396.018c-4.045-1.149-7.717-4.348-10.254-7.837c-2.839-3.904-2.13-10.648-4.969-13.133
					c-1.745-1.527-1.88-4.525-1.726-6.611c-0.546,0.457-1.058,1.001-1.488,1.646c-2.279,3.419,0.57,7.122,2.279,9.686
					c1.709,2.564,1.994,8.831,3.988,11.111s5.983,5.413,9.686,5.413C182.808,396.293,183.586,396.2,184.084,396.018z"/>
			</g>
			
				<path id="XMLID_140_" style="fill:#263238;stroke:#263238;stroke-width:1.0834;stroke-linecap:round;stroke-linejoin:round;stroke-miterlimit:10;" d="
				M166.597,299.873c0,0,7.317,13.458,13,21.306c7.584,10.473,21.306,26.452,21.306,26.452l-2.167,50.647l6.771,0.813
				c0,0,12.188-49.835,12.459-53.898c0.271-4.063-17.605-42.251-17.605-42.251"/>
			
				<path style="fill:none;stroke:#FFFFFF;stroke-width:1.0834;stroke-linecap:round;stroke-linejoin:round;stroke-miterlimit:10;" d="
				M217.845,347.437c-0.065-15.281-6.68-27.01-13.549-40.197l3.161-7.226"/>
			
				<path style="fill:none;stroke:#FFFFFF;stroke-width:1.0834;stroke-linecap:round;stroke-linejoin:round;stroke-miterlimit:10;" d="
				M205.113,367.266c-0.23,1.887-0.366,3.205-0.366,3.205"/>
			
				<path style="fill:none;stroke:#FFFFFF;stroke-width:1.0834;stroke-linecap:round;stroke-linejoin:round;stroke-miterlimit:10;" d="
				M179.503,308.628c5.343,8.409,18.327,28.635,21.179,31.131c3.613,3.161,9.936,3.613,8.581,5.871
				c-1.355,2.258-5.871,4.968-4.065,5.42c1.807,0.452,3.613,0.903,2.258,3.613c-0.678,1.355-1.355,5.31-1.864,8.924"/>
			
				<path style="fill:none;stroke:#FFFFFF;stroke-width:1.0834;stroke-linecap:round;stroke-linejoin:round;stroke-miterlimit:10;" d="
				M177.196,304.982c0,0,0.455,0.723,1.239,1.962"/>
			<g>
				
					<path id="XMLID_151_" style="fill:#C6FF00;stroke:#263238;stroke-width:1.0834;stroke-linecap:round;stroke-linejoin:round;stroke-miterlimit:10;" d="
					M197.774,371.616l17.755,1.505l-4.815,24.978c0,0,1.806,4.514,6.922,6.019c5.116,1.505,7.222,2.408,7.222,4.815
					c0,2.408-2.107,3.009-10.533,3.912c-8.426,0.903-17.153-2.408-17.153-2.408s-3.912-0.602-4.213-3.31
					c-0.301-2.708,3.912-10.232,3.912-10.232L197.774,371.616z"/>
				
					<path style="fill:#263238;stroke:#263238;stroke-width:1.0834;stroke-linecap:round;stroke-linejoin:round;stroke-miterlimit:10;" d="
					M214.326,412.844c8.011-0.858,10.305-1.448,10.512-3.572c-4.212,0.905-9.587,1.589-14.805,0.916
					c-8.262-1.066-14.321-3.733-16.828-4.995c-0.201,0.758-0.302,1.43-0.246,1.934c0.301,2.708,4.213,3.31,4.213,3.31
					S205.9,413.747,214.326,412.844z"/>
			</g>
		</g>
		<g>
			<g>
				<defs>
					<path id="XMLID_130_" d="M166.377,236.126c0,0-20.552,10.482-25.279,15.619c-4.727,5.138-1.028,9.865,0.822,15.208
						c1.85,5.343,25.93,35.928,27.78,37.366c1.85,1.439,11.303-3.083,24.046-8.632c12.742-5.549,15.825-7.81,15.825-10.892
						s-16.477-52.986-17.504-55.247C191.039,227.288,171.721,233.043,166.377,236.126z"/>
				</defs>
				<use xlink:href="#XMLID_130_"  style="overflow:visible;fill:#FFFFFF;"/>
				<clipPath id="XMLID_00000124857704639002922390000002287795509696407195_">
					<use xlink:href="#XMLID_130_"  style="overflow:visible;"/>
				</clipPath>
				<path style="clip-path:url(#XMLID_00000124857704639002922390000002287795509696407195_);fill:#C6FF00;" d="M160.726,276.959
					l13.776,0.551l-18.46-3.582c0,0-12.95-5.786-12.95-12.674c0-6.888,7.99-9.368,7.99-9.368l19.562-5.235l1.378-12.123
					c-0.315,0-1.204,0.03-2.441,0.083c-1.304,0.541-2.411,1.058-3.205,1.516c0,0-20.552,10.482-25.279,15.619
					c-4.727,5.138-1.028,9.865,0.822,15.208c1.85,5.343,25.93,35.928,27.78,37.366c1.85,1.439,11.303-3.083,24.046-8.632
					c0.141-0.061,0.264-0.117,0.403-0.177c-3.664,0.738-15.404,3.623-19.095,0.459c-3.857-3.306-11.848-11.572-11.848-11.572
					l29.757,0.276L160.726,276.959z"/>
				<path style="opacity:0.5;clip-path:url(#XMLID_00000124857704639002922390000002287795509696407195_);fill:#FFFFFF;" d="
					M160.726,276.959l13.776,0.551l-18.46-3.582c0,0-12.95-5.786-12.95-12.674c0-6.888,7.99-9.368,7.99-9.368l19.562-5.235
					l1.378-12.123c-0.315,0-1.204,0.03-2.441,0.083c-1.304,0.541-2.411,1.058-3.205,1.516c0,0-20.552,10.482-25.279,15.619
					c-4.727,5.138-1.028,9.865,0.822,15.208c1.85,5.343,25.93,35.928,27.78,37.366c1.85,1.439,11.303-3.083,24.046-8.632
					c0.141-0.061,0.264-0.117,0.403-0.177c-3.664,0.738-15.404,3.623-19.095,0.459c-3.857-3.306-11.848-11.572-11.848-11.572
					l29.757,0.276L160.726,276.959z"/>
				
					<use xlink:href="#XMLID_130_"  style="overflow:visible;fill:none;stroke:#263238;stroke-width:1.0834;stroke-linecap:round;stroke-linejoin:round;stroke-miterlimit:10;"/>
			</g>
			
				<path id="XMLID_134_" style="fill:#263238;stroke:#263238;stroke-width:1.0834;stroke-linecap:round;stroke-linejoin:round;stroke-miterlimit:10;" d="
				M160.628,239.167c1.271,1.905,4.477,6.182,9.449,9.29c6.577,4.11,10.893,3.288,13.153-0.822
				c1.849-3.363-1.114-13.323-2.254-16.838c-5.662,1.543-11.905,3.775-14.599,5.328
				C166.377,236.126,163.976,237.351,160.628,239.167z"/>
		</g>
		<g>
			<defs>
				<path id="XMLID_127_" d="M179.325,228.316c0,0-1.644,1.85-1.233,3.905c0.411,2.055,2.466,10.07,2.261,12.742
					c-0.206,2.672-2.672,3.083-7.81,1.028c-5.138-2.055-8.426-8.015-9.248-9.454c-0.822-1.439-4.11-10.07-4.11-10.07l2.261-1.439
					c0,0,2.261,3.494,7.81,3.494s9.454-2.877,10.07-1.644C179.941,228.111,179.325,228.316,179.325,228.316z"/>
			</defs>
			<use xlink:href="#XMLID_127_"  style="overflow:visible;fill:#FFFFFF;"/>
			<clipPath id="XMLID_00000083088638008289183330000004434443346104219572_">
				<use xlink:href="#XMLID_127_"  style="overflow:visible;"/>
			</clipPath>
			<path style="clip-path:url(#XMLID_00000083088638008289183330000004434443346104219572_);fill:#C6FF00;" d="M169.862,237.3
				l9.463-8.984l-0.301-1.687c-1.145-0.414-4.791,1.893-9.769,1.893c-5.549,0-7.81-3.494-7.81-3.494l-2.261,1.439
				c0,0,3.288,8.632,4.11,10.07c0.822,1.439,4.11,7.399,9.248,9.454c0.521,0.208,1.008,0.385,1.474,0.543L169.862,237.3z"/>
			<path style="opacity:0.5;clip-path:url(#XMLID_00000083088638008289183330000004434443346104219572_);fill:#FFFFFF;" d="
				M169.862,237.3l9.463-8.984l-0.301-1.687c-1.145-0.414-4.791,1.893-9.769,1.893c-5.549,0-7.81-3.494-7.81-3.494l-2.261,1.439
				c0,0,3.288,8.632,4.11,10.07c0.822,1.439,4.11,7.399,9.248,9.454c0.521,0.208,1.008,0.385,1.474,0.543L169.862,237.3z"/>
			
				<use xlink:href="#XMLID_127_"  style="overflow:visible;fill:none;stroke:#263238;stroke-width:1.0834;stroke-linecap:round;stroke-linejoin:round;stroke-miterlimit:10;"/>
		</g>
		<g>
			
				<polygon id="XMLID_128_" style="fill:#263238;stroke:#263238;stroke-width:1.0834;stroke-linecap:round;stroke-linejoin:round;stroke-miterlimit:10;" points="
				150.758,219.684 155.074,225.233 160.623,222.973 156.512,215.368 			"/>
			<g>
				<defs>
					<path id="XMLID_126_" d="M158.156,221.945c0,0-6.166-8.221-5.96-10.687s13.058-11.803,16.551-11.187
						c3.494,0.617,8.995,11.081,8.995,11.081l3.092,3.092l-1.028,2.877c0,0,5.272,7.29,4.656,8.318
						c-0.617,1.028-5.344,3.905-11.098,5.138c-5.755,1.233-11.303-2.466-11.303-2.466s-3.905,1.644-5.549,0.617
						s-3.905-4.727-3.494-5.549C153.429,222.356,158.156,221.945,158.156,221.945z"/>
				</defs>
				<use xlink:href="#XMLID_126_"  style="overflow:visible;fill:#FFFFFF;"/>
				<clipPath id="XMLID_00000096029958904556815870000002750432371562843045_">
					<use xlink:href="#XMLID_126_"  style="overflow:visible;"/>
				</clipPath>
				<path style="clip-path:url(#XMLID_00000096029958904556815870000002750432371562843045_);fill:#C6FF00;" d="M173.365,230.577
					c2.443-0.523,4.696-1.344,6.533-2.192c-0.204-0.014-0.399-0.034-0.572-0.068c-2.44-0.481-9.463-2.069-12.184-5.47
					c-2.721-3.401-4.081-4.421-4.081-4.421l15.225-6.731l-0.542-0.542c0,0-5.501-10.464-8.995-11.081
					c-3.494-0.617-16.346,8.721-16.551,11.187s5.96,10.687,5.96,10.687s-4.727,0.411-5.138,1.233
					c-0.411,0.822,1.85,4.521,3.494,5.549s5.549-0.617,5.549-0.617S167.61,231.81,173.365,230.577z"/>
				<path style="opacity:0.5;clip-path:url(#XMLID_00000096029958904556815870000002750432371562843045_);fill:#FFFFFF;" d="
					M173.365,230.577c2.443-0.523,4.696-1.344,6.533-2.192c-0.204-0.014-0.399-0.034-0.572-0.068
					c-2.44-0.481-9.463-2.069-12.184-5.47c-2.721-3.401-4.081-4.421-4.081-4.421l15.225-6.731l-0.542-0.542
					c0,0-5.501-10.464-8.995-11.081c-3.494-0.617-16.346,8.721-16.551,11.187s5.96,10.687,5.96,10.687s-4.727,0.411-5.138,1.233
					c-0.411,0.822,1.85,4.521,3.494,5.549s5.549-0.617,5.549-0.617S167.61,231.81,173.365,230.577z"/>
				
					<use xlink:href="#XMLID_126_"  style="overflow:visible;fill:none;stroke:#263238;stroke-width:1.0834;stroke-linecap:round;stroke-linejoin:round;stroke-miterlimit:10;"/>
			</g>
		</g>
		
			<path id="XMLID_138_" style="fill:#263238;stroke:#263238;stroke-width:1.0834;stroke-linecap:round;stroke-linejoin:round;stroke-miterlimit:10;" d="
			M228.855,223.589l22.813,149.823l2.877-0.411l-21.99-149.617C232.554,223.384,231.115,222.767,228.855,223.589z"/>
		<g>
			
				<path id="XMLID_133_" style="fill:#C6FF00;stroke:#263238;stroke-width:1.0834;stroke-linecap:round;stroke-linejoin:round;stroke-miterlimit:10;" d="
				M229.471,242.086c0,0-4.521-1.028-4.521,1.644c0,2.672-0.411,7.193,1.233,8.221c1.644,1.028,3.699,0.617,3.905-1.85
				C230.293,247.635,230.088,241.469,229.471,242.086z"/>
			
				<path id="XMLID_137_" style="fill:#C6FF00;stroke:#263238;stroke-width:1.0834;stroke-linecap:round;stroke-linejoin:round;stroke-miterlimit:10;" d="
				M232.117,253.275c0,0-0.154,3.226,0.461,3.548c0.615,0.323,8.917-0.323,9.225-0.968c0.307-0.645,0.154-3.226-0.461-3.387
				C240.726,252.307,232.885,252.469,232.117,253.275z"/>
			
				<path id="XMLID_136_" style="fill:#C6FF00;stroke:#263238;stroke-width:1.0834;stroke-linecap:round;stroke-linejoin:round;stroke-miterlimit:10;" d="
				M229.676,249.074c0,0-0.196,4.11,0.588,4.521c0.784,0.411,11.362-0.411,11.754-1.233c0.392-0.822,0.196-4.11-0.588-4.316
				S230.655,248.046,229.676,249.074z"/>
			
				<path id="XMLID_135_" style="fill:#C6FF00;stroke:#263238;stroke-width:1.0834;stroke-linecap:round;stroke-linejoin:round;stroke-miterlimit:10;" d="
				M229.266,244.552c0,0-0.206,4.11,0.617,4.521c0.822,0.411,11.92-0.411,12.331-1.233c0.411-0.822,0.206-4.11-0.617-4.316
				C240.775,243.319,230.293,243.525,229.266,244.552z"/>
			
				<path id="XMLID_131_" style="fill:#C6FF00;stroke:#263238;stroke-width:1.0834;stroke-linecap:round;stroke-linejoin:round;stroke-miterlimit:10;" d="
				M228.649,240.031c0,0-0.206,4.11,0.617,4.521c0.822,0.411,11.92-0.411,12.331-1.233c0.411-0.822,0.206-4.11-0.617-4.316
				C240.158,238.798,229.677,239.003,228.649,240.031z"/>
		</g>
		<g>
			<g>
				<defs>
					<path id="XMLID_11_" d="M139.152,259.066c0.282,6.208,5.646,10.612,8.982,12.764c1.523,0.982,3.297,1.486,5.109,1.462
						l59.787-0.789v-13.153l-64.533-9.043c0,0-5.129,0.201-6.507,4.059"/>
				</defs>
				<use xlink:href="#XMLID_11_"  style="overflow:visible;fill:#FFFFFF;"/>
				<clipPath id="XMLID_00000061441478259572527800000004343039815445715388_">
					<use xlink:href="#XMLID_11_"  style="overflow:visible;"/>
				</clipPath>
				<path style="clip-path:url(#XMLID_00000061441478259572527800000004343039815445715388_);fill:#C6FF00;" d="M148.497,250.307
					c0,0-5.129,0.201-6.507,4.059l-2.838,4.701c0.282,6.208,5.646,10.612,8.982,12.763c1.523,0.982,3.297,1.487,5.109,1.463
					l59.787-0.789v-9.995c-1.243-1.414-2.42-2.719-3.231-3.611l-1.374-0.192l-3.063,10.54c0,0-35.819-0.827-46.564-2.755
					c-10.746-1.929-14.052-4.133-14.327-9.092C144.195,252.437,148.497,250.307,148.497,250.307z"/>
				<path style="opacity:0.5;clip-path:url(#XMLID_00000061441478259572527800000004343039815445715388_);fill:#FFFFFF;" d="
					M148.497,250.307c0,0-5.129,0.201-6.507,4.059l-2.838,4.701c0.282,6.208,5.646,10.612,8.982,12.763
					c1.523,0.982,3.297,1.487,5.109,1.463l59.787-0.789v-9.995c-1.243-1.414-2.42-2.719-3.231-3.611l-1.374-0.192l-3.063,10.54
					c0,0-35.819-0.827-46.564-2.755c-10.746-1.929-14.052-4.133-14.327-9.092C144.195,252.437,148.497,250.307,148.497,250.307z"/>
				
					<use xlink:href="#XMLID_11_"  style="overflow:visible;fill:none;stroke:#263238;stroke-width:1.0834;stroke-linecap:round;stroke-linejoin:round;stroke-miterlimit:10;"/>
			</g>
			
				<path id="XMLID_132_" style="fill:#C6FF00;stroke:#263238;stroke-width:1.0834;stroke-linecap:round;stroke-linejoin:round;stroke-miterlimit:10;" d="
				M208.714,257.711l-0.411,19.319l19.73-4.11c0,0,10.07,0.822,12.331,0.617c2.261-0.206,4.11-3.494,4.11-5.138
				c0-1.644,0-3.699,0-3.699s1.644-1.233,1.439-2.877c-0.206-1.644-3.494-2.672-3.494-2.672s-9.454-2.055-12.126-1.439
				C227.622,258.328,208.714,257.711,208.714,257.711z"/>
		</g>
		<g>
			
				<path id="XMLID_115_" style="fill:#C6FF00;stroke:#263238;stroke-width:1.0834;stroke-linecap:round;stroke-linejoin:round;stroke-miterlimit:10;" d="
				M148.086,222.151l34.527-15.825c0,0,1.439-1.028-0.822-1.233c-2.261-0.206-6.782,0.617-6.782,0.617s-7.289-10.365-8.727-10.776
				c-1.439-0.411-2.261,0-2.466,0.822c-0.206,0.822-0.206,0.822-0.206,0.822s-11.824,3.377-16.346,9.337
				C142.743,211.875,148.086,222.151,148.086,222.151z"/>
			
				<path style="fill:none;stroke:#263238;stroke-width:1.0834;stroke-linecap:round;stroke-linejoin:round;stroke-miterlimit:10;" d="
				M164.08,197.68l1.53,3.061c0,0-3.911,1.87-3.911,3.911c0,2.04,3.061,6.802,3.061,6.802"/>
			
				<path style="fill:none;stroke:#263238;stroke-width:1.0834;stroke-linecap:round;stroke-linejoin:round;stroke-miterlimit:10;" d="
				M152.687,204.141c0,0-1.87,2.04-1.87,4.591s2.721,7.482,2.721,7.482"/>
			
				<line style="fill:none;stroke:#263238;stroke-width:1.0834;stroke-linecap:round;stroke-linejoin:round;stroke-miterlimit:10;" x1="148.436" y1="219.105" x2="168.331" y2="209.923"/>
		</g>
		<g>
			
				<path id="XMLID_163_" style="fill:#FFFFFF;stroke:#263238;stroke-width:1.0834;stroke-linecap:round;stroke-linejoin:round;stroke-miterlimit:10;" d="
				M284.516,395.029c0.046-0.582,0.078-1.168,0.078-1.76c0-13.986-13.157-25.324-29.386-25.324
				c-16.23,0-29.386,11.338-29.386,25.324c0,0.592,0.032,1.178,0.078,1.76H284.516z"/>
			
				<path id="XMLID_84_" style="fill:#FFFFFF;stroke:#263238;stroke-width:1.0834;stroke-linecap:round;stroke-linejoin:round;stroke-miterlimit:10;" d="
				M284.516,397.436c0.046-0.582,0.078-1.168,0.078-1.76c0-13.986-13.157-25.324-29.386-25.324
				c-16.23,0-29.386,11.338-29.386,25.324c0,0.592,0.032,1.178,0.078,1.76H284.516z"/>
			
				<path id="XMLID_154_" style="fill:#C6FF00;stroke:#263238;stroke-width:1.0834;stroke-linecap:round;stroke-linejoin:round;stroke-miterlimit:10;" d="
				M255.208,370.352c-10.002,0-18.831,4.309-24.138,10.887l6.893,5.442c3.862-4.78,9.764-7.843,16.387-7.843
				c6.624,0,12.527,3.064,16.389,7.845l8.96-5.001C274.435,374.855,265.433,370.352,255.208,370.352z"/>
			
				<path style="fill:#263238;stroke:#263238;stroke-width:1.0834;stroke-linecap:round;stroke-linejoin:round;stroke-miterlimit:10;" d="
				M263.231,396.692c0-4.928-3.995-8.923-8.923-8.923c-4.928,0-8.923,3.995-8.923,8.923c0,0.251,0.017,0.498,0.038,0.744h17.771
				C263.214,397.19,263.231,396.943,263.231,396.692z"/>
		</g>
	</g>
</g>
</svg>
