<?xml version="1.0" encoding="utf-8"?>
<!-- Generator: Adobe Illustrator 27.5.0, SVG Export Plug-In . SVG Version: 6.00 Build 0)  -->
<svg version="1.1" xmlns="http://www.w3.org/2000/svg" xmlns:xlink="http://www.w3.org/1999/xlink" x="0px" y="0px"
	 viewBox="0 0 500 500" style="enable-background:new 0 0 500 500;" xml:space="preserve">
<g id="Background_Simple">
	<g>
		<path style="fill:#C6FF00;" d="M407.926,190.391c0,0-11.333-25.333-54.667-58.667c-43.333-33.333-96.667-37.333-121.333-23.333
			c-24.667,14-30,28.667-52,54s-52,35.333-84,51.333s-40,52.667-29.333,85.333c10.667,32.667,51.333,35.333,76.667,26.667
			c25.333-8.667,60.667-50,125.333-40s66,40,130,42S437.26,237.724,407.926,190.391z M93.262,250.065l-0.606-6.038l6.038-0.606
			l0.606,6.038L93.262,250.065z M181.197,289.352l-1.449-5.893l5.893-1.449l1.449,5.893L181.197,289.352z M203.357,219.229
			l-10.815-4.251l4.251-10.815l10.815,4.251L203.357,219.229z M218.18,164.521l-1.449-5.893l5.893-1.449l1.449,5.893L218.18,164.521
			z M296.057,208.109l-1.449-5.893l5.893-1.449l1.449,5.893L296.057,208.109z M318.79,278.107l-10.815-4.251l4.251-10.815
			l10.815,4.251L318.79,278.107z M326.537,151.829l-10.815-4.251l4.251-10.815l10.815,4.251L326.537,151.829z M411.185,292.654
			l-0.606-6.038l6.038-0.606l0.606,6.038L411.185,292.654z"/>
		<path style="opacity:0.7;fill:#FFFFFF;" d="M407.926,190.391c0,0-11.333-25.333-54.667-58.667
			c-43.333-33.333-96.667-37.333-121.333-23.333c-24.667,14-30,28.667-52,54s-52,35.333-84,51.333s-40,52.667-29.333,85.333
			c10.667,32.667,51.333,35.333,76.667,26.667c25.333-8.667,60.667-50,125.333-40s66,40,130,42S437.26,237.724,407.926,190.391z
			 M93.262,250.065l-0.606-6.038l6.038-0.606l0.606,6.038L93.262,250.065z M181.197,289.352l-1.449-5.893l5.893-1.449l1.449,5.893
			L181.197,289.352z M203.357,219.229l-10.815-4.251l4.251-10.815l10.815,4.251L203.357,219.229z M218.18,164.521l-1.449-5.893
			l5.893-1.449l1.449,5.893L218.18,164.521z M296.057,208.109l-1.449-5.893l5.893-1.449l1.449,5.893L296.057,208.109z
			 M318.79,278.107l-10.815-4.251l4.251-10.815l10.815,4.251L318.79,278.107z M326.537,151.829l-10.815-4.251l4.251-10.815
			l10.815,4.251L326.537,151.829z M411.185,292.654l-0.606-6.038l6.038-0.606l0.606,6.038L411.185,292.654z"/>
	</g>
</g>
<g id="Sign">
	<path style="fill:#C6FF00;" d="M364.259,350.33c-9.278,0-18.024,0.947-25.746,2.616l-52.073-31.532
		c6.724-3.152,10.819-7.316,10.819-11.884c0-9.833-18.953-17.804-42.333-17.804c-23.38,0-42.333,7.971-42.333,17.804
		c0,4.662,4.266,8.904,11.24,12.078l-50.006,31.748c-8.154-1.924-17.552-3.025-27.567-3.025c-31.173,0-56.444,10.628-56.444,23.739
		c0,13.111,25.271,23.739,56.444,23.739c31.173,0,56.444-10.628,56.444-23.739c0-7.118-7.46-13.501-19.26-17.852l49.548-31.458
		c6.397,1.633,13.904,2.573,21.934,2.573c8.166,0,15.787-0.975,22.255-2.659l51.27,31.046
		c-12.598,4.354-20.635,10.956-20.635,18.349c0,13.111,25.271,23.739,56.444,23.739c31.173,0,56.444-10.628,56.444-23.739
		C420.704,360.958,395.433,350.33,364.259,350.33z M186.241,372.585c0,8.467-17.9,15.331-39.982,15.331
		c-22.081,0-39.981-6.864-39.981-15.331c0-8.467,17.9-15.331,39.981-15.331C168.341,357.253,186.241,364.117,186.241,372.585z
		 M224.94,308.416c0-6.35,13.425-11.498,29.986-11.498c16.561,0,29.986,5.148,29.986,11.498c0,6.351-13.425,11.499-29.986,11.499
		C238.365,319.914,224.94,314.766,224.94,308.416z M364.259,387.916c-22.081,0-39.981-6.864-39.981-15.331
		c0-8.467,17.9-15.331,39.981-15.331c22.081,0,39.982,6.864,39.982,15.331C404.241,381.052,386.341,387.916,364.259,387.916z"/>
</g>
<g id="Character_1">
	<g>
		<path style="fill:#FFFFFF;stroke:#263238;stroke-linecap:round;stroke-linejoin:round;stroke-miterlimit:10;" d="M175.991,357.964
			c0,0,10.569-1.216,12.346-2.066c1.778-0.851,4.158,0.345,2.919,1.692c-1.239,1.346-5.463,5.666-7.973,7.583
			c-2.51,1.917-8.048,5.773-9.621,5.32s-4.243-8.63-4.243-8.63S174.31,361.142,175.991,357.964z"/>
		<path style="fill:#FFFFFF;stroke:#263238;stroke-linecap:round;stroke-linejoin:round;stroke-miterlimit:10;" d="M120.54,368.403
			c0,0,7.06,4.784,8.75,5.842c1.691,1.058,4.145,0.674,3.953,2.657c-0.192,1.983-4.873,1.613-9.257,1.795
			c-4.384,0.182-9.945-1.562-12.469-2.867c-2.524-1.306,0.314-5.655,0.78-7.649C112.764,366.187,120.54,368.403,120.54,368.403z"/>
		<path style="fill:#263238;stroke:#263238;stroke-linecap:round;stroke-linejoin:round;stroke-miterlimit:10;" d="M121.331,264.142
			c0,0-2.576,6.582-2.329,12.529c0.247,5.947,3.263,9.966,3.263,9.966l0.297,32.104c0,0-6.541,10.891-6.369,15.028
			c0.172,4.137-4.714,36.197-4.714,36.197s1.605,1.228,3.404,0.895c1.799-0.334,5.635-1.529,5.635-1.529
			s10.412-36.175,12.331-39.881c1.918-3.706,3.934-11.301,4.786-15.739c0.852-4.439,1.726-14.576,1.726-14.576
			s11.385,18.435,11.945,19.448c0.56,1.013,2.314,12.077,3.51,15.913c1.195,3.835,3.769,9.686,6.268,13.726
			c2.499,4.04,8.649,14.922,8.649,14.922s2.338,0.162,4.094-1.206c1.756-1.368,2.166-3.975,2.166-3.975s-7.301-19.899-8.055-25.566
			c-0.753-5.667-4.328-16.915-5.297-21.537c-0.969-4.622-15.196-35.371-15.196-35.371l-2.293-11.56L121.331,264.142z"/>
		<path style="fill:#FFFFFF;stroke:#263238;stroke-linecap:round;stroke-linejoin:round;stroke-miterlimit:10;" d="M167.748,228.027
			c0,0-0.247-5.947,1.563-6.022c1.81-0.075,5.99,0.787,5.526,2.102c-0.464,1.314-1.207,2.122-1.207,2.122l-2.618-0.668l3.533,3.997
			c0,0,5.797-3.867,4.094-1.206c-1.703,2.661-1.574,5.763-3.362,6.356c-1.788,0.592-6.346,3.113-6.346,3.113l-25.954,11.179
			l-1.474-10.558l25.264-2.862L167.748,228.027z"/>
		<path style="fill:#C6FF00;stroke:#263238;stroke-linecap:round;stroke-linejoin:round;stroke-miterlimit:10;" d="M143.747,209.768
			c0,0,2.562,13.334,2.079,20.307c-0.483,6.972-0.729,19.651-0.46,26.128c0.269,6.477,1.438,8.592-0.059,9.735
			c-1.497,1.144-7.03,1.837-14.279,2.138c-7.249,0.301-10.076-0.818-10.294-2.353s-0.087-20.698-1.101-26.527
			c-1.014-5.829-0.208-23.629,2.228-28.21c2.436-4.581,14.743-9.572,16.6-9.495C140.316,201.568,143.747,209.768,143.747,209.768z"
			/>
		<polygon style="fill:#FFFFFF;stroke:#263238;stroke-linecap:round;stroke-linejoin:round;stroke-miterlimit:10;" points="
			144.948,208.946 148.244,213.907 148.423,218.225 144.266,214.845 		"/>
		<path style="fill:#FFFFFF;stroke:#263238;stroke-linecap:round;stroke-linejoin:round;stroke-miterlimit:10;" d="M149.025,191.782
			l-8.709,9.786l3.167,9.293l11.715-4.349c0,0-2.12-6.401-2.415-9.787c-0.295-3.387-0.391-5.7-0.391-5.7
			S151.397,189.367,149.025,191.782z"/>
		<path style="fill:#263238;stroke:#263238;stroke-linecap:round;stroke-linejoin:round;stroke-miterlimit:10;" d="M170.514,188.419
			c0,0,1.253,0.411,3.335-1.529c2.082-1.94,2.617-7.679-0.57-13.726c-3.186-6.047-15.01-8.029-20.807-6.243
			c-5.796,1.786-11.549,8.359-11.582,15.003c-0.033,6.645,4.002,10.803,6.206,11.793c2.204,0.99,4.215,1.061,5.758,0.997
			c1.542-0.064,8.155-0.802,10.88-2.151c2.725-1.349,4.184-3.418,4.184-3.418L170.514,188.419z"/>
		<path style="fill:#FFFFFF;stroke:#263238;stroke-linecap:round;stroke-linejoin:round;stroke-miterlimit:10;" d="M154.397,190.941
			c0,0,0.656-2.808-2.043-4.55c-2.699-1.742-3.303,2.3-2.899,4.601c0.404,2.301,1.066,3.355,1.066,3.355s-1.678,4.241-1.074,7.615
			c0.604,3.374,6.38,8.541,7.768,8.484c1.388-0.058,6.209-6.746,6.209-6.746s3.547-0.147,3.959-1.4
			c0.411-1.253-0.243-5.861-0.243-5.861s2.59-4.588,3.561-7.255c0.971-2.667-2.358-4.691-3.63-5.565s-3.495-2.327-4.209-0.907
			c-0.714,1.42,0.719,6.15-0.817,6.368c-1.536,0.218-3.457-1.402-3.457-1.402s-0.618,3.734-2.153,3.952
			C154.899,191.848,154.397,190.941,154.397,190.941z"/>
		<polygon style="fill:#FFFFFF;stroke:#263238;stroke-linecap:round;stroke-linejoin:round;stroke-miterlimit:10;" points="
			140.818,198.766 145.873,212.615 142.383,217.858 136.422,200.803 		"/>
		<polygon style="fill:#263238;stroke:#263238;stroke-linecap:round;stroke-linejoin:round;stroke-miterlimit:10;" points="
			179.159,215.898 171.712,236.15 173.521,236.075 181.001,216.598 		"/>
		<path style="fill:#FFFFFF;stroke:#263238;stroke-linecap:round;stroke-linejoin:round;stroke-miterlimit:10;" d="M135.641,246.972
			c0,0,28.41-8.173,29.165-8.722c0.754-0.549-0.429-10.342-0.429-10.342l6.443-0.785c0,0,2.09,0.431,0.829,1.261
			c-1.261,0.829-3.545,1.96-3.545,1.96l7.703-1.615l1.961-2.671c0,0,1.605,1.228,0.872,2.295c-0.733,1.066-1.433,2.909-1.401,3.684
			c0.032,0.776-0.098,3.889-1.854,5.257c-1.756,1.368-11.884,6.969-16.7,9.499c-4.816,2.531-19.652,13.248-23.768,13.937
			c-4.116,0.689-7.475-11.604-7.475-11.604L135.641,246.972z"/>
		<path style="fill:#C6FF00;stroke:#263238;stroke-linecap:round;stroke-linejoin:round;stroke-miterlimit:10;" d="M127.006,213.66
			c0,0-5.333,2.552-5.151,6.948c0.183,4.396,2.312,30.726,2.312,30.726l12.799-3.639l0.164-14.77c0,0,2.091-5.785,2.264-7.864
			c0.173-2.079-4.448-7.327-4.448-7.327"/>
		<path style="fill:none;stroke:#263238;stroke-linecap:round;stroke-linejoin:round;stroke-miterlimit:10;" d="M133.07,222.473
			c0,0,4.384,5.775,4.06,10.451"/>
	</g>
</g>
<g id="Character_2">
	<g>
		<path style="fill:#263238;stroke:#263238;stroke-miterlimit:10;" d="M263.09,152.136c0,0,2.295-5.41,7.87-4.591
			c5.574,0.82,10.001,12.461,10.329,17.707c0.328,5.247-2.623,11.149-1.803,13.936c0.82,2.787,7.05-0.164,7.05,3.279
			c0,3.443-2.295,9.181-9.673,9.837c-7.378,0.656-15.576-6.558-17.051-12.133c-1.476-5.574,2.295-14.428,2.295-18.527
			S263.09,152.136,263.09,152.136z"/>
		<path style="fill:#263238;stroke:#263238;stroke-miterlimit:10;" d="M251.285,150.66c0,0-3.607,0.492-5.411,3.279
			c-1.803,2.787,1.803,10.165,3.607,11.477c1.804,1.312,7.05,4.427,10.329,4.427c3.279,0,9.673-0.492,10.001-4.427
			c0.328-3.935-2.951-11.149-7.214-14.592C258.335,147.381,254.892,144.266,251.285,150.66z"/>
		<path style="fill:#FFFFFF;stroke:#263238;stroke-miterlimit:10;" d="M249.318,164.76c0,0-1.312-1.967-1.803-0.984
			c-0.492,0.984-0.82,3.115,0.164,4.427c0.984,1.312,2.131,1.803,2.131,1.803L249.318,164.76z"/>
		<path style="fill:#FFFFFF;stroke:#263238;stroke-miterlimit:10;" d="M248.22,299.535c0,0-6.628,7.954-5.038,9.015
			c1.591,1.06,6.628-2.917,8.484-4.772c1.856-1.856,2.651-1.061,2.386-3.712C253.788,297.414,248.22,299.535,248.22,299.535z"/>
		<path style="fill:#C6FF00;stroke:#263238;stroke-miterlimit:10;" d="M240.792,229.522c0,0-2.117,14.6-1.321,20.963
			c0.795,6.363,4.772,14.848,5.037,17.764c0.265,2.917-0.53,9.81,0.53,14.052c1.061,4.242,3.182,17.234,3.182,17.234
			s1.061,1.326,2.651,1.326c1.591,0,3.182-0.795,3.182-0.795s1.061-43.217,1.061-47.459c0-4.242,0-10.87,2.651-13.257
			c2.651-2.386,9.818-7.026,10.079-11.467c0.261-4.441-15.912-4.971-20.685-4.441C242.387,223.972,240.792,229.522,240.792,229.522z
			"/>
		<path style="fill:#263238;stroke:#263238;stroke-miterlimit:10;" d="M248.22,299.535c0,0,1.061,1.326,2.651,1.326
			c1.591,0,3.182-0.795,3.182-0.795s0.942-38.365,1.05-46.345l-10.551,17.408c-0.064,3.364-0.306,8.006,0.486,11.173
			C246.099,286.544,248.22,299.535,248.22,299.535z"/>
		<path style="fill:#C6FF00;stroke:#263238;stroke-miterlimit:10;" d="M258.56,229.805c0,0-2.651,4.242-3.447,10.871
			c-0.795,6.628,0,29.695,0.53,35.793c0.53,6.098,2.386,31.551,2.386,31.551l4.507-1.856c0,0,4.507-26.248,4.242-32.081
			c-0.265-5.833-2.386-7.689-0.265-15.908c2.121-8.219,5.046-19.753,1.33-30.292C264.128,217.344,258.56,229.805,258.56,229.805z"/>
		<path style="fill:#FFFFFF;stroke:#263238;stroke-miterlimit:10;" d="M255.876,177.385c0,0-15.084,4.591-17.051,6.066
			c-1.967,1.476-6.722,25.741-6.722,28.2c0,2.459,2.951,4.591,5.41,1.968c2.459-2.623,4.919-16.887,4.919-16.887
			s-0.984,6.558-0.164,9.509c0.82,2.951,1.639,5.083,1.639,5.083l-3.115,18.199c0,0,5.246,2.951,12.133,2.459
			c6.886-0.492,14.92-4.099,14.92-4.099l-2.295-16.395c0,0,2.787-5.902,2.787-7.87c0-1.967,0-2.951,0-2.951
			s2.295,12.297,4.263,17.707c1.967,5.411,9.181,18.527,9.181,18.527l2.787-0.656c0,0-3.771-17.707-5.246-21.15
			c-1.476-3.443-3.607-10.985-3.607-12.952c0-1.967-0.82-16.068-1.475-18.035c-0.656-1.967-10.001-5.247-12.952-6.23
			C258.335,176.893,255.876,177.385,255.876,177.385z"/>
		<path style="fill:#C6FF00;stroke:#263238;stroke-miterlimit:10;" d="M254.728,176.237c0,0-1.967,0.164-2.787,1.476
			c-0.82,1.312-2.295,10.165-2.295,10.165s7.378-2.459,7.87-2.787c0.492-0.328,8.198,3.771,8.198,3.771s-0.492-6.722-2.295-9.837
			C261.614,175.909,257.023,175.909,254.728,176.237z"/>
		<path style="fill:#FFFFFF;stroke:#263238;stroke-miterlimit:10;" d="M253.744,175.909c0,0-0.328,6.558,0,7.87
			c0.328,1.312,1.967,5.574,3.279,5.574c1.312,0,3.279-6.066,3.443-6.722c0.164-0.656,0.656-6.722,0.656-6.722H253.744z"/>
		<path style="fill:#FFFFFF;stroke:#263238;stroke-miterlimit:10;" d="M252.925,158.038c0,0-3.279,3.115-3.279,4.755
			c0,1.64-0.492,7.706,1.312,10.657c1.803,2.951,4.427,5.574,7.214,5.082c2.787-0.492,4.919-3.607,5.247-5.738
			c0.328-2.131,0.656-4.755,0.656-4.755S258.007,166.236,252.925,158.038z"/>
		<path style="fill:#FFFFFF;stroke:#263238;stroke-miterlimit:10;" d="M260.151,304.838c0,0,0.517-0.246,1.328-0.601
			c2.954-1.291,9.807-4.016,9.807-1.52c0,3.182-9.81,10.075-11.666,10.34c-1.856,0.265-1.591-5.038-1.591-5.038
			S258.56,306.959,260.151,304.838z"/>
		<path style="fill:#FFFFFF;stroke:#263238;stroke-miterlimit:10;" d="M281.78,236.9c0,0,0.214,1.407-1.047,2.948
			c-1.261,1.541-2.241,6.304-1.121,6.584c1.121,0.28,0.981-0.42,1.401-1.681c0.42-1.261,1.121-2.101,1.121-2.101
			s0.42,2.662-0.14,4.063c-0.56,1.401-1.401,3.362-0.56,3.782c0.84,0.42,1.821-0.14,2.662-2.241c0.84-2.101,1.261-5.604,1.261-7.004
			c0-1.401-0.789-5.004-0.789-5.004L281.78,236.9z"/>
		<rect x="251.596" y="194.18" style="fill:#263238;stroke:#263238;stroke-miterlimit:10;" width="7.424" height="15.55"/>
		<path style="fill:#FFFFFF;stroke:#263238;stroke-miterlimit:10;" d="M248.374,205.106c0,0,2.522-5.463,3.502-5.884
			c0.981-0.42,5.884,0.42,5.884,0.42s1.121,0.981,0.84,1.401c-0.28,0.42-1.261,0.56-1.261,0.56h-1.261l-2.521,0.28l-0.56,1.121
			c0,0,1.821-0.14,2.802,0c0.981,0.14,2.802,1.261,2.802,1.821c0,0.56,0,0.981-0.701,1.401c-0.7,0.42-4.903,1.261-5.323,1.541
			c-0.42,0.28-0.84,1.121-2.241,2.101c-1.401,0.981-3.502,0-3.502,0l-0.56-1.401L248.374,205.106z"/>
		<path style="fill:#FFFFFF;stroke:#263238;stroke-miterlimit:10;" d="M246.273,208.468c0,0-11.207,0.14-12.047,0.14
			s-1.864,0.342-2.123,3.043c-0.259,2.701-0.819,4.662,1.282,5.503c2.101,0.84,15.97-6.724,15.97-6.724
			S246.833,210.43,246.273,208.468z"/>
	</g>
</g>
<g id="Character_3">
	<g>
		<path style="fill:#FFFFFF;stroke:#263238;stroke-miterlimit:10;" d="M351.768,363.67c0,0-7.684,3.617-9.124,5.96
			c-1.44,2.343,0.147,2.474,2.621,2.326c2.474-0.147,6.455-1.513,8.677-2.097s4.286-0.03,4.602-2.305
			c0.316-2.276-0.214-3.598-0.214-3.598S355.444,360.968,351.768,363.67z"/>
		<path style="fill:#FFFFFF;stroke:#263238;stroke-miterlimit:10;" d="M373.613,366.657c0,0-5.828,8.246-7.494,10.602
			c-1.665,2.356,1.604,4.193,4.303,4.032s8.134-3.644,9.124-5.96c0.991-2.316,0.444-7.7,0.444-7.7S376.113,366.96,373.613,366.657z"
			/>
		<path style="fill:#263238;stroke:#263238;stroke-miterlimit:10;" d="M348.786,264.317c0,0,0.397,18.032-0.047,25.732
			c-0.444,7.7,1.49,47.758,1.932,55.18c0.442,7.421,1.098,18.441,1.098,18.441s2.158,2.128,6.562,0.286
			c0,0,0.463-18.76,0.789-24.647c0.327-5.888,4.628-39.772,4.759-41.359c0.131-1.588,1.087-15.863,1.087-15.863
			s4.405,36.074,4.82,43.046c0.415,6.972,3.206,42.465,3.206,42.465s1.151,0.383,2.752,0.739c1.601,0.356,4.246-0.704,4.246-0.704
			s1.274-12.715,1.574-19.052c0.3-6.337,0.545-32.532,0.077-40.403c-0.469-7.871-0.448-15.095-0.29-16.233
			c0.158-1.138,2.122-28.789,1.008-32.334c-1.114-3.545-16.773,2.579-22.449,2.014C354.234,261.059,348.649,258.232,348.786,264.317
			z"/>
		<path style="fill:#C6FF00;stroke:#263238;stroke-linecap:round;stroke-linejoin:round;stroke-miterlimit:10;" d="M332.614,239.1
			c0,0,8.699,9.638,11.307,11.74c2.608,2.102,6.827,0.947,8.069-0.932c1.242-1.88,1.151-18.575,1.151-18.575l-3.243-20.345
			l-4.596,28.937l-9.871-2.797C335.431,237.127,332.202,235.965,332.614,239.1z"/>
		<path style="fill:#C6FF00;stroke:#263238;stroke-miterlimit:10;" d="M365.094,204.666c0,0-13.028,4.838-14.575,5.382
			c-1.547,0.544-2.217,8.257-2.107,13.893c0.11,5.636-0.778,39.994,0.692,41.938s4.434,2.444,10.281,2.096
			c5.847-0.348,16.706-3.703,19.986-5.478c3.28-1.775,4.126-2.728,4.126-2.728s2.834-31.991,3.755-39.268
			c0.921-7.277-1.344-11.204-4.19-13.518C380.216,204.669,365.094,204.666,365.094,204.666z"/>
		<path style="fill:#FFFFFF;stroke:#263238;stroke-miterlimit:10;" d="M365.094,204.666c0,0-1.93,0.717-4.391,1.629
			c-1.031,3.631-2.122,8.449-2.122,12.586c0,7.846,2.452,7.355,6.865,2.942c3.566-3.566,8.412-10.974,11.176-16.533
			C371.39,204.668,365.094,204.666,365.094,204.666z"/>
		<path style="fill:#FFFFFF;stroke:#263238;stroke-miterlimit:10;" d="M361.654,203.743c0,0,1.473,5.78,0.999,9.194
			c-0.474,3.413-1.239,5.716,0.335,5.622c1.574-0.094,7.006-7.414,7.507-10.378c0.501-2.964,0.308-13.785,0.308-13.785
			L361.654,203.743z"/>
		<path style="fill:#FFFFFF;stroke:#263238;stroke-miterlimit:10;" d="M352.007,181.974c0,0,1.529,10.516,2.418,14.075
			c0.889,3.558,3.301,9.96,5.114,10.077c1.813,0.118,8.755-4.584,10.208-6.702c1.454-2.118,1.304-8.428,1.539-12.053
			c0.236-3.625-1.143-7.831-3.459-8.822C365.511,177.558,353.209,179.419,352.007,181.974z"/>
		<path style="fill:#263238;stroke:#263238;stroke-miterlimit:10;" d="M365.528,181.62c0,0-4.894,1.194-11.866,1.609
			c-6.972,0.415-7.847-2.918-6.024-6.412c1.823-3.494,8.249-9.293,18.013-8.295c9.764,0.998,10.736,9.742,10.236,12.706
			c-0.501,2.964-1.794,7.78-1.794,7.78s-1.735-2.605-2.806-1.638c-1.071,0.966-1.041,5.253-1.041,5.253l-2.434,0.822
			c0,0-0.584-2.222-1.074-2.87c-0.49-0.648-3.732-2.035-3.799-3.159C362.872,186.292,365.528,181.62,365.528,181.62z"/>
		<path style="fill:#FFFFFF;stroke:#263238;stroke-miterlimit:10;" d="M369.624,193.563c0,0,0.683-7.488,3.435-6.75
			c2.752,0.739,1.802,3.729,0.375,6.297c-1.427,2.568-3.186,3.349-3.186,3.349"/>
		<path style="fill:#C6FF00;stroke:#263238;stroke-miterlimit:10;" d="M380.923,212.751c0,0-1.676,5.968-1.515,8.667
			c0.161,2.699,11.864,32.47,12.183,34.031c0.319,1.561,4.645,2.206,6.8,0.498s3.146-4.024,1.66-10.029
			c-0.92-3.718-10.552-29.389-11.23-33.185c-0.677-3.797-3.312-6.348-5.759-5.751"/>
		<path style="fill:#FFFFFF;stroke:#263238;stroke-miterlimit:10;" d="M371.95,262.938c0,0-0.225,0.013-1.93,1.695
			c-1.705,1.681-1.783,4.169-1.783,4.169l4.249,3.132l1.941-5.306L371.95,262.938z"/>
		<path style="fill:#C6FF00;stroke:#263238;stroke-miterlimit:10;" d="M393.7,245.393c0,0-8.661,6.158-11.635,9.269
			c-1.994,2.085-10.115,8.276-10.115,8.276l2.477,3.689c0,0,4.743-2.319,9.006-4.147c5.502-2.359,16.125-2.089,17.416-10.742"/>
		<polygon style="fill:#263238;stroke:#263238;stroke-miterlimit:10;" points="329.589,226.19 336.652,242.471 344.113,242.704 
			337.473,225.946 		"/>
		<path style="fill:#FFFFFF;stroke:#263238;stroke-miterlimit:10;" d="M335.388,232.616c0,0-4.803-1.068-5.411,0.096
			c-0.608,1.165,2.201,6.64,3.406,7.922c1.205,1.282,4.102,0.658,5.636-0.11c1.534-0.768,0.195-4.3-0.731-4.696
			c-0.926-0.396-5.478-1.028-5.478-1.028s4.102,0.659,4.723-0.281C338.153,233.579,337.214,232.958,335.388,232.616z"/>
	</g>
</g>
</svg>
