<?xml version="1.0" encoding="utf-8"?>
<!-- Generator: Adobe Illustrator 27.5.0, SVG Export Plug-In . SVG Version: 6.00 Build 0)  -->
<svg version="1.1" xmlns="http://www.w3.org/2000/svg" xmlns:xlink="http://www.w3.org/1999/xlink" x="0px" y="0px"
	 viewBox="0 0 500 500" style="enable-background:new 0 0 500 500;" xml:space="preserve">
<g id="BACKGROUND">
	<rect style="fill:#FFFFFF;" width="500" height="500"/>
</g>
<g id="OBJECTS">
	<g>
		<g>
			<path style="fill:#CCD0FF;" d="M91.749,254.351c-12.49,0-22.652-10.162-22.652-22.652c0-12.49,10.162-22.652,22.652-22.652
				c12.49,0,22.652,10.162,22.652,22.652C114.401,244.189,104.239,254.351,91.749,254.351z M91.749,213.816
				c-9.861,0-17.883,8.022-17.883,17.883c0,9.861,8.022,17.883,17.883,17.883s17.883-8.022,17.883-17.883
				C109.632,221.838,101.61,213.816,91.749,213.816z"/>
		</g>
		<g>
			<g>
				<g>
					<g>
						
							<rect x="78.374" y="227.858" transform="matrix(0.7119 -0.7023 0.7023 0.7119 -136.541 124.5092)" style="fill:#CCD0FF;" width="10.226" height="1.638"/>
					</g>
					<g>
						
							<rect x="82.625" y="229.682" transform="matrix(0.712 -0.7022 0.7022 0.712 -140.8423 126.2265)" style="fill:#CCD0FF;" width="1.638" height="10.226"/>
					</g>
				</g>
			</g>
			<g>
				<g>
					<g>
						
							<rect x="99.094" y="223.529" transform="matrix(0.6937 -0.7203 0.7203 0.6937 -134.0833 142.0091)" style="fill:#CCD0FF;" width="1.638" height="10.226"/>
					</g>
					<g>
						
							<rect x="94.916" y="233.939" transform="matrix(0.6936 -0.7204 0.7204 0.6936 -138.4602 143.9844)" style="fill:#CCD0FF;" width="10.226" height="1.638"/>
					</g>
				</g>
			</g>
			<g>
				
					<rect x="79.555" y="230.938" transform="matrix(0.3173 -0.9483 0.9483 0.3173 -157.1897 245.163)" style="fill:#CCD0FF;" width="24.255" height="1.638"/>
			</g>
		</g>
	</g>
	<g>
		<g>
			<path style="fill:#E6E8FF;" d="M289.375,29.783c-29.034,3.509-57.27,14.021-80.701,30.624
				c-40.635,28.795-60.948,74.79-97.621,106.995c-22.898,20.108-53.435,19.517-75.579,47.459
				c-23.837,30.077-9.741,77.312,8.033,107.83c13.602,23.354,34.837,50.697,54.734,64.411
				c102.981,70.981,283.76,70.052,351.781-50.322c26.624-47.115,33.164-105.199,23.57-157.982
				c-9.56-52.594-37.188-104.05-85.009-130.86C358.755,31.215,323.513,25.657,289.375,29.783z"/>
		</g>
	</g>
	<g style="opacity:0.1;">
		<ellipse cx="252.466" cy="339.892" rx="191.648" ry="8.644"/>
	</g>
	<g>
		<g>
			<path style="fill:#8A91E6;" d="M265.874,81.949l11.629-2.479l-3.312-15.54l-11.629,2.479c-2.349-5.654-5.828-10.619-10.105-14.68
				l6.472-9.979l-13.331-8.646l-6.472,9.979c-5.452-2.25-11.404-3.402-17.525-3.241l-2.479-11.629l-15.54,3.312l2.479,11.629
				c-5.654,2.349-10.619,5.828-14.68,10.106l-9.979-6.472l-8.646,13.331l9.979,6.472c-2.25,5.452-3.402,11.404-3.241,17.525
				l-11.629,2.479l3.312,15.54l11.629-2.479c2.349,5.654,5.828,10.619,10.105,14.68l-6.472,9.979l13.331,8.646l6.472-9.979
				c5.453,2.25,11.404,3.402,17.525,3.241l2.479,11.629l15.54-3.312l-2.479-11.629c5.654-2.349,10.619-5.828,14.68-10.106
				l9.979,6.472l8.646-13.331l-9.979-6.472C264.882,94.021,266.034,88.07,265.874,81.949z M227.965,107.904
				c-13.721,2.924-27.215-5.828-30.139-19.548c-2.925-13.721,5.827-27.215,19.548-30.139c13.721-2.924,27.215,5.828,30.139,19.549
				C250.439,91.485,241.686,104.979,227.965,107.904z"/>
		</g>
		<g>
			<path style="fill:#8A91E6;" d="M192.094,156.903l-2.515-11.797l-8.828,1.882c-1.784-4.292-4.424-8.061-7.672-11.145l4.913-7.575
				l-10.12-6.564l-4.913,7.575c-4.139-1.708-8.658-2.582-13.304-2.46l-1.882-8.828l-11.797,2.515l1.882,8.828
				c-4.292,1.783-8.061,4.424-11.144,7.672l-7.575-4.913l-6.564,10.12l7.575,4.913c-1.708,4.139-2.582,8.658-2.46,13.304
				l-8.828,1.882l2.514,11.797l8.828-1.882c1.784,4.292,4.424,8.061,7.672,11.144l-4.913,7.575l10.12,6.564l4.913-7.575
				c4.139,1.708,8.658,2.582,13.304,2.461l1.882,8.828l11.797-2.514l-1.882-8.828c4.292-1.784,8.061-4.424,11.144-7.672l7.575,4.913
				l6.564-10.12l-7.575-4.913c1.708-4.139,2.582-8.657,2.461-13.304L192.094,156.903z M154.488,178.489
				c-10.416,2.22-20.66-4.424-22.88-14.84c-2.22-10.416,4.424-20.66,14.84-22.88c10.416-2.22,20.66,4.424,22.88,14.84
				C171.549,166.025,164.905,176.268,154.488,178.489z"/>
		</g>
	</g>
	<g>
		<g>
			<g>
				<g>
					<path style="fill:#CCD0FF;" d="M365.512,189.711c-11.362,0-22.044-4.425-30.079-12.459
						c-8.034-8.034-12.459-18.717-12.459-30.079c0-11.362,4.425-22.044,12.459-30.079c8.034-8.034,18.716-12.459,30.079-12.459
						c11.362,0,22.044,4.425,30.079,12.459c8.034,8.034,12.459,18.716,12.459,30.079c0,11.362-4.425,22.044-12.459,30.079
						C387.556,185.286,376.874,189.711,365.512,189.711z M365.512,112.341c-19.207,0-34.832,15.626-34.832,34.832
						s15.625,34.832,34.832,34.832s34.832-15.625,34.832-34.832S384.719,112.341,365.512,112.341z"/>
				</g>
			</g>
		</g>
		<g>
			<g>
				<g>
					<rect x="354.606" y="147.1" style="fill:#CCD0FF;" width="5.034" height="10.081"/>
				</g>
			</g>
			<g>
				<g>
					<rect x="362.995" y="141.913" style="fill:#CCD0FF;" width="5.034" height="15.268"/>
				</g>
			</g>
			<g>
				<g>
					<rect x="371.385" y="137.166" style="fill:#CCD0FF;" width="5.034" height="20.015"/>
				</g>
			</g>
		</g>
	</g>
	<g>
		<g>
			<g>
				<g>
					<path style="fill:#CCD0FF;" d="M114.129,109.833c-10.52,0-20.41-4.097-27.849-11.535c-7.439-7.439-11.535-17.329-11.535-27.849
						s4.097-20.41,11.535-27.849c7.439-7.439,17.329-11.535,27.849-11.535c10.52,0,20.41,4.097,27.849,11.535
						c7.439,7.439,11.535,17.329,11.535,27.849s-4.097,20.41-11.535,27.849C134.539,105.736,124.649,109.833,114.129,109.833z
						 M114.129,38.198c-17.783,0-32.25,14.467-32.25,32.25c0,17.783,14.467,32.25,32.25,32.25c17.783,0,32.25-14.467,32.25-32.25
						C146.379,52.666,131.911,38.198,114.129,38.198z"/>
				</g>
			</g>
		</g>
		<g>
			<g>
				<rect x="102.969" y="67.576" style="fill:#CCD0FF;" width="22.077" height="17.661"/>
			</g>
			<g>
				<path style="fill:#CCD0FF;" d="M123.39,71.44h-18.765v-8.278c0-5.174,4.209-9.383,9.383-9.383c5.174,0,9.383,4.209,9.383,9.383
					V71.44z M108.488,67.576h11.038v-4.415c0-3.043-2.476-5.52-5.519-5.52c-3.043,0-5.519,2.476-5.519,5.52V67.576z"/>
			</g>
		</g>
	</g>
	<g>
		<g>
			<rect x="98.453" y="276.299" style="fill:#8A91E6;" width="49.295" height="63.551"/>
		</g>
		<g>
			<g>
				<path style="fill:#FFFFFF;" d="M101.212,338.157c-0.721,0-1.308-0.587-1.308-1.308s0.587-1.309,1.308-1.309
					c0.721,0,1.308,0.588,1.308,1.309S101.933,338.157,101.212,338.157z M101.212,336.305c-0.3,0-0.545,0.244-0.545,0.545
					c0,0.3,0.244,0.544,0.545,0.544c0.3,0,0.545-0.244,0.545-0.544C101.757,336.549,101.512,336.305,101.212,336.305z"/>
			</g>
			<g>
				<path style="fill:#FFFFFF;" d="M144.989,338.157c-0.721,0-1.308-0.587-1.308-1.308s0.587-1.309,1.308-1.309
					c0.721,0,1.308,0.588,1.308,1.309S145.71,338.157,144.989,338.157z M144.989,336.305c-0.3,0-0.545,0.244-0.545,0.545
					c0,0.3,0.244,0.544,0.545,0.544c0.3,0,0.545-0.244,0.545-0.544C145.534,336.549,145.289,336.305,144.989,336.305z"/>
			</g>
		</g>
		<g>
			<g>
				<path style="fill:#FFFFFF;" d="M123.1,327.898c-2.064,0-3.744-1.68-3.744-3.744c0-2.065,1.679-3.745,3.744-3.745
					c2.064,0,3.744,1.68,3.744,3.745C126.844,326.218,125.164,327.898,123.1,327.898z M123.1,321.172
					c-1.644,0-2.981,1.337-2.981,2.981c0,1.644,1.337,2.98,2.981,2.98c1.644,0,2.981-1.336,2.981-2.98
					C126.081,322.51,124.744,321.172,123.1,321.172z"/>
			</g>
			<g>
				<circle style="fill:#747AC2;" cx="123.1" cy="324.154" r="1.651"/>
			</g>
		</g>
		<g>
			<path style="fill:#FFFFFF;" d="M145.009,283.326h-43.818c-0.21,0-0.382-0.171-0.382-0.382c0-0.211,0.171-0.382,0.382-0.382
				h43.818c0.211,0,0.381,0.171,0.381,0.382C145.391,283.155,145.22,283.326,145.009,283.326z"/>
		</g>
		<g>
			<g>
				<rect x="111.381" y="304.315" style="fill:#747AC2;" width="23.439" height="11.579"/>
			</g>
			<g>
				
					<rect x="122.013" y="304.708" transform="matrix(-1.836970e-16 1 -1 -1.836970e-16 433.205 187.0046)" style="fill:#D5D1DE;" width="2.175" height="10.793"/>
			</g>
		</g>
		<g>
			<g>
				<rect x="111.381" y="287.84" style="fill:#747AC2;" width="23.439" height="11.579"/>
			</g>
			<g>
				
					<rect x="122.013" y="288.233" transform="matrix(-1.836970e-16 1 -1 -1.836970e-16 416.7298 170.5294)" style="fill:#D5D1DE;" width="2.175" height="10.793"/>
			</g>
		</g>
		<g>
			
				<rect x="75.424" y="276.299" transform="matrix(-1 -1.224647e-16 1.224647e-16 -1 173.8772 616.1487)" style="fill:#747AC2;" width="23.029" height="63.551"/>
		</g>
	</g>
	<g>
		<g>
			<rect x="296.7" y="205.697" style="fill:#747AC2;" width="123.272" height="134.154"/>
		</g>
		<g>
			<rect x="346.298" y="205.697" style="fill:#8A91E6;" width="73.634" height="134.154"/>
		</g>
		<g>
			<g>
				<rect x="348.118" y="213.547" style="fill:#747AC2;" width="69.994" height="25.787"/>
			</g>
			<g>
				<path style="fill:#FFFFFF;" d="M416.39,237.874h-66.55v-22.866h66.55V237.874z M350.603,237.111h65.023v-21.341h-65.023V237.111
					z"/>
			</g>
			<g>
				<g>
					<g>
						<path style="fill:#FFFFFF;" d="M377.305,222.949h-21.224c-0.211,0-0.382-0.171-0.382-0.381c0-0.21,0.171-0.381,0.382-0.381
							h21.224c0.211,0,0.382,0.171,0.382,0.381C377.687,222.778,377.516,222.949,377.305,222.949z"/>
					</g>
					<g>
						<path style="fill:#FFFFFF;" d="M377.305,226.822h-21.224c-0.211,0-0.382-0.171-0.382-0.381c0-0.211,0.171-0.381,0.382-0.381
							h21.224c0.211,0,0.382,0.171,0.382,0.381C377.687,226.651,377.516,226.822,377.305,226.822z"/>
					</g>
					<g>
						<path style="fill:#FFFFFF;" d="M377.305,230.696h-21.224c-0.211,0-0.382-0.171-0.382-0.381c0-0.21,0.171-0.381,0.382-0.381
							h21.224c0.211,0,0.382,0.171,0.382,0.381C377.687,230.525,377.516,230.696,377.305,230.696z"/>
					</g>
				</g>
				<g>
					<g>
						<path style="fill:#D5D1DE;" d="M394.549,226.441c0,1.201-0.974,2.175-2.176,2.175c-1.201,0-2.175-0.974-2.175-2.175
							c0-1.201,0.974-2.175,2.175-2.175C393.575,224.266,394.549,225.24,394.549,226.441z"/>
					</g>
					<g>
						<path style="fill:#D5D1DE;" d="M402.349,226.441c0,1.201-0.974,2.175-2.176,2.175c-1.201,0-2.175-0.974-2.175-2.175
							c0-1.201,0.974-2.175,2.175-2.175C401.375,224.266,402.349,225.24,402.349,226.441z"/>
					</g>
					<g>
						<path style="fill:#D5D1DE;" d="M410.149,226.441c0,1.201-0.974,2.175-2.176,2.175c-1.201,0-2.175-0.974-2.175-2.175
							c0-1.201,0.974-2.175,2.175-2.175C409.175,224.266,410.149,225.24,410.149,226.441z"/>
					</g>
				</g>
			</g>
		</g>
		<g>
			<g>
				<rect x="348.118" y="271.832" style="fill:#747AC2;" width="69.994" height="25.787"/>
			</g>
			<g>
				<path style="fill:#FFFFFF;" d="M416.39,296.159h-66.55v-22.867h66.55V296.159z M350.603,295.395h65.023v-21.34h-65.023V295.395z
					"/>
			</g>
			<g>
				<g>
					<g>
						<path style="fill:#FFFFFF;" d="M377.305,281.234h-21.224c-0.211,0-0.382-0.171-0.382-0.382s0.171-0.382,0.382-0.382h21.224
							c0.211,0,0.382,0.171,0.382,0.382S377.516,281.234,377.305,281.234z"/>
					</g>
					<g>
						<path style="fill:#FFFFFF;" d="M377.305,285.107h-21.224c-0.211,0-0.382-0.171-0.382-0.382c0-0.211,0.171-0.382,0.382-0.382
							h21.224c0.211,0,0.382,0.171,0.382,0.382C377.687,284.935,377.516,285.107,377.305,285.107z"/>
					</g>
					<g>
						<path style="fill:#FFFFFF;" d="M377.305,288.981h-21.224c-0.211,0-0.382-0.171-0.382-0.382c0-0.21,0.171-0.382,0.382-0.382
							h21.224c0.211,0,0.382,0.171,0.382,0.382C377.687,288.809,377.516,288.981,377.305,288.981z"/>
					</g>
				</g>
				<g>
					<g>
						<path style="fill:#D5D1DE;" d="M394.549,284.725c0,1.201-0.974,2.175-2.176,2.175c-1.201,0-2.175-0.974-2.175-2.175
							c0-1.202,0.974-2.176,2.175-2.176C393.575,282.55,394.549,283.524,394.549,284.725z"/>
					</g>
					<g>
						<path style="fill:#D5D1DE;" d="M402.349,284.725c0,1.201-0.974,2.175-2.176,2.175c-1.201,0-2.175-0.974-2.175-2.175
							c0-1.202,0.974-2.176,2.175-2.176C401.375,282.55,402.349,283.524,402.349,284.725z"/>
					</g>
					<g>
						<path style="fill:#D5D1DE;" d="M410.149,284.725c0,1.201-0.974,2.175-2.176,2.175c-1.201,0-2.175-0.974-2.175-2.175
							c0-1.202,0.974-2.176,2.175-2.176C409.175,282.55,410.149,283.524,410.149,284.725z"/>
					</g>
				</g>
			</g>
		</g>
		<g>
			<g>
				<rect x="348.118" y="302.919" style="fill:#747AC2;" width="69.994" height="25.787"/>
			</g>
			<g>
				<path style="fill:#FFFFFF;" d="M416.39,327.246h-66.55v-22.867h66.55V327.246z M350.603,326.482h65.023v-21.34h-65.023V326.482z
					"/>
			</g>
			<g>
				<g>
					<g>
						<path style="fill:#FFFFFF;" d="M377.305,312.321h-21.224c-0.211,0-0.382-0.171-0.382-0.382c0-0.21,0.171-0.382,0.382-0.382
							h21.224c0.211,0,0.382,0.171,0.382,0.382C377.687,312.15,377.516,312.321,377.305,312.321z"/>
					</g>
					<g>
						<path style="fill:#FFFFFF;" d="M377.305,316.194h-21.224c-0.211,0-0.382-0.171-0.382-0.382c0-0.21,0.171-0.382,0.382-0.382
							h21.224c0.211,0,0.382,0.171,0.382,0.382C377.687,316.022,377.516,316.194,377.305,316.194z"/>
					</g>
					<g>
						<path style="fill:#FFFFFF;" d="M377.305,320.068h-21.224c-0.211,0-0.382-0.171-0.382-0.382c0-0.211,0.171-0.382,0.382-0.382
							h21.224c0.211,0,0.382,0.171,0.382,0.382C377.687,319.896,377.516,320.068,377.305,320.068z"/>
					</g>
				</g>
				<g>
					<g>
						<path style="fill:#D5D1DE;" d="M394.549,315.812c0,1.202-0.974,2.176-2.176,2.176c-1.201,0-2.175-0.974-2.175-2.176
							s0.974-2.176,2.175-2.176C393.575,313.637,394.549,314.611,394.549,315.812z"/>
					</g>
					<g>
						<circle style="fill:#D5D1DE;" cx="400.174" cy="315.812" r="2.175"/>
					</g>
					<g>
						<path style="fill:#D5D1DE;" d="M410.149,315.812c0,1.202-0.974,2.176-2.176,2.176c-1.201,0-2.175-0.974-2.175-2.176
							s0.974-2.176,2.175-2.176C409.175,313.637,410.149,314.611,410.149,315.812z"/>
					</g>
				</g>
			</g>
		</g>
		<g>
			<g>
				<rect x="365.609" y="244.634" style="fill:#747AC2;" width="35.012" height="21.898"/>
			</g>
			<g>
				<rect x="368.737" y="247.522" style="fill:#D5D1DE;" width="3.248" height="16.122"/>
			</g>
		</g>
		<g>
			<g>
				<path style="fill:#747AC2;" d="M351.802,335.368c0,0.764-0.619,1.384-1.384,1.384c-0.764,0-1.384-0.62-1.384-1.384
					c0-0.764,0.619-1.384,1.384-1.384C351.183,333.985,351.802,334.604,351.802,335.368z"/>
			</g>
			<g>
				<path style="fill:#747AC2;" d="M417.195,335.368c0,0.764-0.62,1.384-1.384,1.384c-0.764,0-1.384-0.62-1.384-1.384
					c0-0.764,0.62-1.384,1.384-1.384C416.575,333.985,417.195,334.604,417.195,335.368z"/>
			</g>
		</g>
	</g>
	<g>
		<g>
			<g>
				<g>
					<g>
						<path style="fill:#D5D1DE;" d="M179.306,321.429h19.579c-1.868,1.602-3.052,3.978-3.052,6.632l0,0
							c0,4.825,3.912,8.737,8.737,8.737h6c0.581,0,1.053,0.471,1.053,1.053l0,0c0,0.581-0.471,1.053-1.053,1.053h-31.264
							c-4.825,0-8.737-3.912-8.737-8.737l0,0C170.569,325.34,174.481,321.429,179.306,321.429z"/>
					</g>
				</g>
				<g>
					<g>
						<path style="fill:#A6A3AD;" d="M179.223,339.85h31.845c0.523,0,0.947-0.424,0.947-0.947c0-0.523-0.424-0.947-0.947-0.947
							h-31.845c-4.295,0-7.79-3.494-7.79-7.79c0-4.295,3.494-7.789,7.79-7.789c0.523,0,0.947-0.424,0.947-0.947
							c0-0.523-0.424-0.947-0.947-0.947c-5.34,0-9.684,4.344-9.684,9.684C169.539,335.506,173.883,339.85,179.223,339.85z"/>
					</g>
				</g>
			</g>
			<g style="opacity:0.15;">
				<path d="M195.895,327.025h-25.83c1.308-3.802,4.918-6.543,9.159-6.543c0.523,0,0.947,0.424,0.947,0.947h18.714
					C197.264,322.819,196.159,324.793,195.895,327.025z"/>
			</g>
		</g>
		<g>
			<g>
				<path style="fill:#747AC2;" d="M240.466,323.516H138.013c-2.4,0-4.346-1.946-4.346-4.346v-67.298c0-2.4,1.946-4.346,4.346-4.346
					h102.452c2.4,0,4.346,1.946,4.346,4.346v67.298C244.812,321.57,242.866,323.516,240.466,323.516z"/>
			</g>
			<g>
				<path style="fill:#A6A3AD;" d="M244.812,308.643v10.527c0,2.4-1.946,4.346-4.346,4.346H138.013c-2.4,0-4.346-1.946-4.346-4.346
					v-10.527H244.812z"/>
			</g>
			<g>
				<path style="fill:#8A91E6;" d="M243.541,323.516H141.089c-2.4,0-4.346-1.946-4.346-4.346v-67.298c0-2.4,1.946-4.346,4.346-4.346
					h102.452c2.4,0,4.346,1.946,4.346,4.346v67.298C247.887,321.57,245.941,323.516,243.541,323.516z"/>
			</g>
			<g>
				<rect x="141.128" y="251.114" style="fill:#FFFFFF;" width="102.304" height="57.594"/>
			</g>
			<g>
				<g>
					<g>
						
							<rect x="138.108" y="277.448" transform="matrix(6.123234e-17 -1 1 6.123234e-17 -124.7716 432.8684)" style="fill:#D5D1DE;" width="31.88" height="2.744"/>
					</g>
					<g>
						
							<rect x="145.349" y="279.736" transform="matrix(6.123234e-17 -1 1 6.123234e-17 -122.1064 440.1092)" style="fill:#D5D1DE;" width="27.305" height="2.744"/>
					</g>
				</g>
				<g>
					<g>
						
							<rect x="155.273" y="279.736" transform="matrix(6.123234e-17 -1 1 6.123234e-17 -112.183 450.0327)" style="fill:#D5D1DE;" width="27.305" height="2.744"/>
					</g>
					<g>
						
							<rect x="162.185" y="281.695" transform="matrix(6.123234e-17 -1 1 6.123234e-17 -109.1895 456.9452)" style="fill:#D5D1DE;" width="23.386" height="2.744"/>
					</g>
				</g>
				<g>
					<g>
						
							<rect x="170.149" y="279.736" transform="matrix(6.123234e-17 -1 1 6.123234e-17 -97.3065 464.9092)" style="fill:#D5D1DE;" width="27.305" height="2.744"/>
					</g>
					<g>
						
							<rect x="177.061" y="281.695" transform="matrix(6.123234e-17 -1 1 6.123234e-17 -94.313 471.8216)" style="fill:#D5D1DE;" width="23.386" height="2.744"/>
					</g>
				</g>
				<g>
					<g>
						<g>
							<g>
								<rect x="197.306" y="271.374" style="fill:#D5D1DE;" width="2.744" height="23.386"/>
							</g>
						</g>
						<g>
							<g>
								<rect x="202.259" y="274.731" style="fill:#D5D1DE;" width="2.744" height="20.029"/>
							</g>
						</g>
					</g>
				</g>
				<g>
					<g>
						
							<rect x="206.814" y="281.695" transform="matrix(6.123234e-17 -1 1 6.123234e-17 -64.5601 501.5745)" style="fill:#D5D1DE;" width="23.386" height="2.744"/>
					</g>
					<g>
						
							<rect x="203.54" y="283.373" transform="matrix(6.123234e-17 -1 1 6.123234e-17 -71.1913 498.2997)" style="fill:#D5D1DE;" width="20.029" height="2.744"/>
					</g>
				</g>
				<g>
					<g>
						<g>
							<rect x="232.011" y="267.455" style="fill:#D5D1DE;" width="2.744" height="27.305"/>
						</g>
						<g>
							<rect x="227.058" y="271.374" style="fill:#D5D1DE;" width="2.744" height="23.386"/>
						</g>
					</g>
				</g>
				<g>
					<g>
						<rect x="147.016" y="297.398" style="fill:#D5D1DE;" width="91.131" height="2.385"/>
					</g>
					<g>
						<rect x="147.016" y="257.331" style="fill:#D5D1DE;" width="2.384" height="42.451"/>
					</g>
				</g>
			</g>
			<g>
				<path style="fill:#D5D1DE;" d="M247.887,308.643v10.527c0,2.4-1.946,4.346-4.346,4.346H141.089c-2.4,0-4.346-1.946-4.346-4.346
					v-10.527H247.887z"/>
			</g>
			<g>
				<path style="fill:#A6A3AD;" d="M192.286,311.798c-1.795,0-3.25,1.455-3.25,3.25s1.455,3.25,3.25,3.25
					c1.795,0,3.25-1.455,3.25-3.25S194.081,311.798,192.286,311.798z"/>
			</g>
		</g>
	</g>
	<g>
		<g>
			<g>
				<g>
					<path style="fill:#B1B6FF;" d="M325.781,333.156c-11.612-16.793-28.191-30.141-47.073-37.905
						c-5.194-2.136-11.057-4.289-16.712-4.665c-26.795-1.78-49.78,15.774-51.336,39.208l4.306,100.355
						c31.593,4.651,64.159,4.566,95.215-0.946l-0.78-18.863c1.47,0.11,2.933,0.173,4.38,0.172
						c16.688-0.001,29.631-10.393,29.001-27.631C342.131,365.068,335.886,347.771,325.781,333.156z M321.338,387.074
						c-1.326,3.536-4.529,3.342-12.804,2.3l-1.717-41.536c0.01-0.157,0.018-0.316,0.027-0.473c3.095,4.334,5.865,8.901,8.223,13.611
						C322.812,376.447,322.222,384.864,321.338,387.074z"/>
				</g>
			</g>
			<g>
				<path style="fill:#FF5C5C;" d="M218.56,243.849h14.367v-17.24H218.56c-4.761,0-8.62,3.859-8.62,8.62l0,0
					C209.94,239.989,213.799,243.849,218.56,243.849z"/>
			</g>
			<g>
				<g>
					<g>
						<path style="fill:#FF5C5C;" d="M270.448,257.381l-29.565-7.508l-0.112,42.885c-0.317,1.396,16.653,10.371,30.657,1.19
							L270.448,257.381z"/>
					</g>
				</g>
			</g>
			<g>
				<path style="fill:#FF6F6F;" d="M249.062,279.649c-0.43-0.016-0.862-0.04-1.295-0.073c-11.33-0.878-21.702-7.977-26.191-18.451
					c-4.448-10.38-2.658-22.907-2.577-33.887c0-8.465,0.126-16.932,0.188-25.396c0.026-3.511-1.236-10.093,0.088-13.289
					c1.111-2.683,0.493-1.476,2.783-2.171c6.034-1.831,15.529,0,21.809,0c13.593,0,27.186,0,40.779,0
					c1.362,0-0.911,66.07-3.314,71.966C276.253,270.808,262.593,280.136,249.062,279.649z"/>
			</g>
			<g>
				<path style="fill:#FF6F6F;" d="M287.963,243.849h-14.367v-17.24h14.367c4.761,0,8.62,3.859,8.62,8.62l0,0
					C296.583,239.989,292.723,243.849,287.963,243.849z"/>
			</g>
			<g>
				<g>
					<g>
						<g>
							<path style="fill:#1A1159;" d="M258.524,233.656l0.668-3.064c-0.228-0.088-0.466-0.138-0.713-0.135
								c-1.477,0.021-2.65,1.794-2.62,3.961c0.03,2.167,1.253,3.906,2.73,3.886c1.477-0.021,2.65-1.794,2.62-3.961
								c-0.016-1.143-0.366-2.163-0.907-2.873L258.524,233.656z"/>
						</g>
					</g>
				</g>
				<g>
					<g>
						<g>
							<path style="fill:#1A1159;" d="M263.232,225.311c-0.526,0-1.035-0.279-1.307-0.772c-0.935-1.697-3.273-2.607-5.11-1.983
								c-0.78,0.263-1.626-0.154-1.891-0.934c-0.264-0.78,0.154-1.626,0.934-1.89c3.226-1.094,7.035,0.388,8.678,3.369
								c0.397,0.721,0.134,1.628-0.586,2.025C263.721,225.251,263.475,225.311,263.232,225.311z"/>
						</g>
					</g>
				</g>
			</g>
			<g>
				<g>
					<g>
						<g>
							<path style="fill:#1A1159;" d="M234.076,233.656l-0.668-3.064c0.228-0.088,0.466-0.138,0.713-0.135
								c1.477,0.021,2.65,1.794,2.619,3.961c-0.03,2.167-1.252,3.906-2.73,3.886c-1.477-0.021-2.65-1.794-2.62-3.961
								c0.016-1.143,0.366-2.163,0.907-2.873L234.076,233.656z"/>
						</g>
					</g>
				</g>
				<g>
					<g>
						<g>
							<path style="fill:#1A1159;" d="M229.369,225.311c0.526,0,1.035-0.279,1.308-0.772c0.934-1.697,3.273-2.607,5.11-1.983
								c0.78,0.263,1.626-0.154,1.891-0.934c0.264-0.78-0.154-1.626-0.934-1.89c-3.226-1.094-7.035,0.388-8.678,3.369
								c-0.397,0.721-0.134,1.628,0.586,2.025C228.879,225.251,229.126,225.311,229.369,225.311z"/>
						</g>
					</g>
				</g>
			</g>
			<g>
				<path style="fill:#FF5C5C;" d="M247.049,248.783c-0.786,0-1.581-0.076-2.354-0.15c-0.893-0.086-1.735-0.167-2.477-0.125
					c-0.814,0.024-1.519-0.546-1.62-1.352c-0.541-4.294,0.053-8.675,1.715-12.67c0.328-0.789,1.236-1.161,2.023-0.834
					c0.789,0.328,1.162,1.234,0.834,2.023c-1.284,3.084-1.839,6.431-1.628,9.758c0.486,0.029,0.971,0.075,1.448,0.121
					c0.89,0.085,1.733,0.165,2.473,0.125c0.842-0.027,1.582,0.608,1.629,1.461c0.047,0.853-0.608,1.582-1.461,1.629
					C247.438,248.778,247.244,248.783,247.049,248.783z"/>
			</g>
			<g>
				<path style="fill:#FF5C5C;" d="M244.078,255.71c-2.304,0-4.614-0.243-6.886-0.743c-0.835-0.184-1.363-1.009-1.179-1.843
					c0.184-0.834,1.011-1.364,1.843-1.178c9.462,2.078,20.07-0.933,27.029-7.677c0.615-0.593,1.592-0.579,2.188,0.034
					c0.594,0.614,0.579,1.593-0.034,2.188C260.908,252.431,252.532,255.71,244.078,255.71z"/>
			</g>
			<g>
				<path style="fill:#1A1159;" d="M284.647,186.381c-3.925,0-7.85,0-11.776,0c-1.391,5.155-2.539,10.372-2.694,15.694
					c-0.206,7.101,1.544,14.523,6.244,19.85c1.965,2.228,4.98,4.11,7.758,3.399C285.046,206.359,285.396,186.381,284.647,186.381z"
					/>
			</g>
			<g style="opacity:0.1;">
				<path d="M266.564,207.975c5.948-2.402,11.743-5.185,17.331-8.335c-17.839,0.828-35.618,2.919-53.162,6.252
					c-3.905,0.742-8.235-9.827-11.51-7.575c-0.07,0.048-0.142,0.111-0.216,0.182c0.103,1.25,0.188,2.407,0.181,3.343
					c-0.042,5.659-0.11,11.319-0.151,16.978c4.992,0.101,10.474-1.055,15.274-1.835
					C245.351,215.191,256.191,212.163,266.564,207.975z"/>
			</g>
			<g>
				<g>
					<path style="fill:#FFB833;" d="M289.51,200.969c0,7.073-83.99,11.597-83.99,0c0-23.193,18.802-41.995,41.995-41.995
						S289.51,177.776,289.51,200.969z"/>
				</g>
				<g>
					<path style="fill:#F79400;" d="M246.951,209.98c-15.265,0-29.802-2.031-42.377-6.064c-1.628-0.522-2.524-2.264-2.002-3.891
						c0.522-1.628,2.268-2.521,3.891-2.002c21.584,6.923,50.574,7.583,77.599,1.776l4.308-1.706
						c1.589-0.629,3.387,0.149,4.016,1.738c0.629,1.589-0.149,3.387-1.738,4.017l-4.544,1.8c-0.156,0.062-0.319,0.111-0.484,0.147
						C272.705,208.589,259.578,209.98,246.951,209.98z"/>
				</g>
				<g>
					<path style="fill:#F79400;" d="M264.117,162.386c-5.093-2.194-10.705-3.412-16.603-3.412c-6.658,0-12.953,1.552-18.546,4.31
						c-1.739,11.006,0.095,24.28,5.285,34.149c3.094,0.884,13.262,0.884,18.124,0C254.024,185.798,258.671,173.001,264.117,162.386z
						"/>
				</g>
			</g>
			<g>
				<path style="fill:#B1B6FF;" d="M277.574,301.758c-0.886-5.967-2.431-13.708-3.316-19.675
					c-6.746,2.031-13.078,5.188-19.228,8.624c0.307,5.083,0.714,9.952,1.021,15.035C263.789,303.54,269.836,303.959,277.574,301.758
					z"/>
			</g>
			<g>
				<path style="fill:#B1B6FF;" d="M252.831,309.713c-0.012,0.002-0.454-13.26-0.896-19.006c-2.652-1.768-8.568-4.311-13.704-5.747
					c0,0-0.884,23.429-0.717,23.211C242.228,308.261,248.118,309.622,252.831,309.713z"/>
			</g>
			<g>
				<path style="fill:#8B93FF;" d="M248.179,338.89c-0.055,0-0.109-0.005-0.165-0.013l-23.65-3.536
					c-0.604-0.09-1.02-0.652-0.93-1.256c0.09-0.604,0.656-1.019,1.257-0.93l23.65,3.536c0.604,0.089,1.02,0.652,0.93,1.256
					C249.189,338.496,248.717,338.89,248.179,338.89z"/>
			</g>
			<g>
				<path style="fill:#8B93FF;" d="M266.301,338.89c-0.531,0-0.999-0.384-1.089-0.924c-0.101-0.602,0.307-1.172,0.908-1.271
					l21.219-3.536c0.61-0.104,1.172,0.307,1.271,0.908c0.1,0.602-0.306,1.172-0.908,1.271l-21.218,3.536
					C266.422,338.885,266.361,338.89,266.301,338.89z"/>
			</g>
			<g>
				<polygon style="fill:#FFFFFF;" points="257.038,399.894 194.766,399.894 171.702,315.019 233.974,315.019 				"/>
			</g>
			<g>
				<polygon style="fill:#D5D1DE;" points="233.974,315.019 231.764,315.019 254.828,399.894 257.038,399.894 				"/>
			</g>
			<g>
				<path style="fill:#FF6F6F;" d="M268.291,366.935c-6.06-4.747-13.132-7.862-21.083-9.265c-4.775-0.843-9.327,2.345-10.169,7.119
					c-0.842,4.774,2.345,9.327,7.119,10.169c5.777,1.019,10.597,3.304,14.715,6.969
					C260.312,378.435,265.745,369.657,268.291,366.935z"/>
			</g>
			<g style="opacity:0.1;">
				<path d="M309.402,410.503c-17.24,1.768-40.227-11.051-48.909-26.901c7.261,29.152,21.778,43.619,49.795,45.407
					C310.288,429.009,309.692,410.53,309.402,410.503z"/>
			</g>
		</g>
		<g>
			<path style="fill:#FF6F6F;" d="M191.443,359.058c2.204,6.212-0.026,12.674-4.983,14.433c-4.956,1.759-10.761-1.852-12.965-8.064
				c-2.204-6.212,0.027-12.674,4.983-14.433C183.433,349.235,189.238,352.845,191.443,359.058z"/>
		</g>
	</g>
	<g>
		<g>
			<path style="fill:#CCD0FF;" d="M321.018,89.23c-12.49,0-22.652-10.162-22.652-22.652c0-12.49,10.162-22.652,22.652-22.652
				c12.49,0,22.652,10.162,22.652,22.652C343.67,79.068,333.508,89.23,321.018,89.23z M321.018,48.695
				c-9.861,0-17.883,8.022-17.883,17.883c0,9.861,8.022,17.883,17.883,17.883c9.861,0,17.883-8.022,17.883-17.883
				C338.901,56.717,330.879,48.695,321.018,48.695z"/>
		</g>
		<g>
			<g>
				<rect x="312.114" y="65.632" style="fill:#CCD0FF;" width="15.553" height="1.637"/>
			</g>
			<g>
				<path style="fill:#CCD0FF;" d="M325.274,73.792h-0.819c-4.048,0-7.341-3.293-7.341-7.341c0-4.048,3.294-7.341,7.341-7.341h0.819
					v1.637h-0.819c-3.145,0-5.704,2.559-5.704,5.703c0,3.145,2.559,5.704,5.704,5.704h0.819V73.792z"/>
			</g>
			<g>
				<path style="fill:#CCD0FF;" d="M311.519,68.467c-0.245,0-0.491-0.045-0.727-0.136c-1.036-0.401-1.553-1.569-1.153-2.605
					c0.402-1.037,1.569-1.553,2.606-1.154c0.502,0.194,0.898,0.572,1.116,1.065c0.218,0.492,0.23,1.039,0.036,1.54l0,0
					c-0.194,0.503-0.571,0.899-1.064,1.117C312.074,68.409,311.797,68.467,311.519,68.467z M311.52,66.074
					c-0.152,0-0.295,0.092-0.353,0.242c-0.075,0.193,0.022,0.412,0.217,0.487c0.125,0.049,0.235,0.017,0.287-0.007
					c0.054-0.024,0.15-0.082,0.199-0.208v-0.001c0.076-0.194-0.021-0.412-0.216-0.487C311.611,66.082,311.565,66.074,311.52,66.074z
					"/>
			</g>
			<g>
				<path style="fill:#CCD0FF;" d="M325.664,61.962c-0.245,0-0.491-0.045-0.727-0.136c-1.036-0.4-1.553-1.568-1.153-2.605
					c0.401-1.036,1.566-1.556,2.606-1.154c0.502,0.194,0.898,0.572,1.116,1.064c0.218,0.492,0.23,1.039,0.036,1.541l0,0
					c-0.194,0.502-0.571,0.898-1.064,1.116C326.218,61.904,325.941,61.962,325.664,61.962z M325.664,59.57
					c-0.151,0-0.294,0.092-0.352,0.241c-0.075,0.193,0.022,0.412,0.216,0.487c0.128,0.049,0.235,0.017,0.289-0.007
					c0.053-0.024,0.15-0.082,0.198-0.208v-0.001c0.049-0.127,0.017-0.235-0.007-0.288c-0.024-0.053-0.082-0.15-0.209-0.199
					C325.755,59.578,325.71,59.57,325.664,59.57z"/>
			</g>
			<g>
				<path style="fill:#CCD0FF;" d="M325.668,75.006c-0.246,0-0.492-0.045-0.727-0.136c-1.036-0.4-1.553-1.569-1.153-2.605
					c0.4-1.037,1.569-1.553,2.606-1.154c0.502,0.194,0.898,0.572,1.116,1.064c0.218,0.492,0.23,1.039,0.036,1.541l0,0
					c-0.194,0.503-0.571,0.899-1.064,1.117C326.222,74.948,325.945,75.006,325.668,75.006z M325.668,72.613
					c-0.152,0-0.295,0.092-0.353,0.241c-0.074,0.193,0.022,0.412,0.216,0.487c0.128,0.049,0.235,0.017,0.289-0.007
					c0.053-0.023,0.149-0.082,0.198-0.208v-0.001c0.049-0.127,0.017-0.235-0.007-0.288c-0.024-0.053-0.082-0.15-0.209-0.199
					C325.759,72.621,325.713,72.613,325.668,72.613z"/>
			</g>
			<g>
				<path style="fill:#CCD0FF;" d="M328.165,68.486c-0.241,0-0.485-0.044-0.724-0.136c-0.502-0.194-0.898-0.572-1.116-1.065
					c-0.218-0.492-0.231-1.04-0.036-1.541c0.194-0.501,0.571-0.898,1.064-1.116c0.492-0.218,1.04-0.231,1.542-0.037
					c1.036,0.4,1.553,1.569,1.153,2.605v0.001C329.738,67.995,328.973,68.486,328.165,68.486z M329.283,66.902h0.009H329.283z
					 M328.168,66.093c-0.066,0-0.12,0.018-0.153,0.033c-0.054,0.024-0.15,0.082-0.199,0.208c-0.075,0.195,0.022,0.414,0.216,0.489
					c0.192,0.075,0.411-0.023,0.487-0.216c0.074-0.194-0.022-0.413-0.216-0.488C328.255,66.1,328.209,66.093,328.168,66.093z"/>
			</g>
		</g>
	</g>
</g>
<g id="DESIGNED_BY_FREEPIK">
	<g>
		<g id="XMLID_1_">
			<g id="XMLID_20_">
				<g id="XMLID_28_">
					<g>
						<g>
							<g>
								<g>
									<g>
										<g>
											<g>
												<g>
													<g>
														<g>
															<g>
																<path style="fill:#1D262D;" d="M260.104,465.465c-0.432,0.443-0.803,0.931-1.108,1.453l-0.465-0.241
																	c-0.067-0.298-0.349-0.503-0.659-0.466c-0.331,0.039-0.568,0.339-0.529,0.67c0.039,0.331,0.339,0.568,0.67,0.529
																	c0.066-0.008,0.127-0.026,0.184-0.052l0.451,0.234c-0.251,0.554-0.433,1.139-0.539,1.744l0.746,0.132
																	c0.23-1.306,0.85-2.507,1.792-3.473L260.104,465.465z"/>
															</g>
														</g>
													</g>
												</g>
											</g>
										</g>
									</g>
								</g>
							</g>
						</g>
					</g>
				</g>
				<g id="XMLID_27_">
					<g>
						<g>
							<g>
								<g>
									<g>
										<g>
											<g>
												<g>
													<g>
														<g>
															<g>
																<path style="fill:#1D262D;" d="M265.592,463.163c-0.171,0-0.341,0.006-0.51,0.017l-0.074-0.626
																	c0.188-0.149,0.296-0.389,0.266-0.645c-0.046-0.393-0.402-0.674-0.795-0.628c-0.393,0.046-0.674,0.402-0.628,0.795
																	c0.03,0.254,0.189,0.461,0.404,0.564l0.074,0.624c-0.714,0.116-1.403,0.332-2.06,0.646l0.327,0.684
																	c0.934-0.447,1.942-0.673,2.995-0.673c0.496,0,0.993,0.053,1.475,0.158l0.161-0.741
																	C266.692,463.222,266.142,463.163,265.592,463.163z"/>
															</g>
														</g>
													</g>
												</g>
											</g>
										</g>
									</g>
								</g>
							</g>
						</g>
					</g>
				</g>
				<g id="XMLID_26_">
					<g>
						<g>
							<g>
								<g>
									<g>
										<g>
											<g>
												<g>
													<g>
														<g>
															<g>
																<path style="fill:#1D262D;" d="M272.194,465.711c0.331-0.04,0.566-0.341,0.526-0.672
																	c-0.04-0.331-0.341-0.566-0.672-0.526c-0.309,0.038-0.535,0.304-0.53,0.609l-0.416,0.363
																	c-0.418-0.43-0.889-0.813-1.408-1.139l-0.404,0.641c1.134,0.715,2.021,1.726,2.563,2.925l0.69-0.313
																	c-0.251-0.554-0.568-1.072-0.942-1.545l0.402-0.351C272.065,465.716,272.129,465.719,272.194,465.711z"/>
															</g>
														</g>
													</g>
												</g>
											</g>
										</g>
									</g>
								</g>
							</g>
						</g>
					</g>
				</g>
				<g id="XMLID_25_">
					<g>
						<g>
							<g>
								<g>
									<g>
										<g>
											<g>
												<g>
													<g>
														<g>
															<g>
																<path style="fill:#1D262D;" d="M265.044,473.372c-0.386,0.023-0.775,0.035-1.157,0.035
																	c-0.88,0-1.733-0.061-2.478-0.179c-0.39-0.062-0.846-0.155-1.27-0.292c1.046,1.861,3.069,3.125,5.388,3.125
																	c2.855,0,5.262-1.916,5.95-4.504c-0.682,0.449-1.505,0.825-2.459,1.123
																	C267.839,473.047,266.463,473.286,265.044,473.372z"/>
															</g>
														</g>
													</g>
												</g>
											</g>
										</g>
									</g>
								</g>
							</g>
						</g>
					</g>
				</g>
				<g id="XMLID_21_">
					<g>
						<g>
							<g>
								<g>
									<g>
										<g>
											<g>
												<g>
													<g>
														<g>
															<g>
																<path style="fill:#1D262D;" d="M265.592,464.68c-3.352,0-6.08,2.666-6.08,5.943c0,0.426,0.046,0.849,0.137,1.261
																	c0.673,0.483,2.706,0.89,5.348,0.731c2.879-0.173,5.297-0.957,6.672-2.159c-0.006-0.195-0.021-0.39-0.045-0.582
																	C271.244,466.913,268.65,464.68,265.592,464.68z M263.432,471.194c-1.02,0-1.85-0.83-1.85-1.85
																	c0-1.02,0.83-1.85,1.85-1.85c1.02,0,1.85,0.83,1.85,1.85C265.282,470.365,264.452,471.194,263.432,471.194z
																	 M268.17,470.286c-0.75,0-1.36-0.61-1.36-1.36s0.61-1.361,1.36-1.361c0.75,0,1.361,0.61,1.361,1.361
																	S268.92,470.286,268.17,470.286z"/>
															</g>
														</g>
													</g>
												</g>
											</g>
										</g>
									</g>
								</g>
							</g>
						</g>
					</g>
				</g>
			</g>
			<g id="XMLID_18_">
				<g>
					<g>
						<g>
							<g>
								<g>
									<g>
										<g>
											<g>
												<g>
													<g>
														<g>
															<path style="fill:#1D262D;" d="M281.595,466.547c-0.295-0.116-0.805-0.309-1.382-0.237
																c-0.551,0.069-0.844,0.341-0.844,1.007v0.866h2.228v1.717h-2.228v5.455h-1.932v-5.455h-1.34v-1.717h1.34v-0.888
																c0-1.68,0.896-2.783,2.568-2.783c0.643,0,1.157,0.122,1.59,0.308L281.595,466.547z"/>
														</g>
													</g>
												</g>
											</g>
										</g>
									</g>
								</g>
							</g>
						</g>
					</g>
				</g>
			</g>
			<g id="XMLID_16_">
				<g>
					<g>
						<g>
							<g>
								<g>
									<g>
										<g>
											<g>
												<g>
													<g>
														<g>
															<path style="fill:#1D262D;" d="M286.298,469.879c-0.177-0.03-0.358-0.046-0.526-0.046
																c-0.895,0-1.51,0.548-1.51,1.614v3.908h-1.932v-7.172h1.873v0.785c0.451-0.673,1.14-0.977,2.021-0.977
																c0.414,0,0.848,0.128,1.094,0.337L286.298,469.879z"/>
														</g>
													</g>
												</g>
											</g>
										</g>
									</g>
								</g>
							</g>
						</g>
					</g>
				</g>
			</g>
			<g id="XMLID_13_">
				<g>
					<g>
						<g>
							<g>
								<g>
									<g>
										<g>
											<g>
												<g>
													<g>
														<g>
															<path style="fill:#1D262D;" d="M293.965,471.757c0,0.222-0.015,0.489-0.037,0.651h-5.085
																c0.207,1.036,0.933,1.488,1.843,1.488c0.622,0,1.295-0.252,1.813-0.688l1.133,1.243
																c-0.814,0.748-1.85,1.088-3.057,1.088c-2.198,0-3.723-1.495-3.723-3.753c0-2.258,1.48-3.797,3.627-3.797
																C292.544,467.99,293.958,469.522,293.965,471.757z M288.851,471.091h3.175c-0.177-0.918-0.733-1.436-1.562-1.436
																C289.554,469.655,289.021,470.203,288.851,471.091z"/>
														</g>
													</g>
												</g>
											</g>
										</g>
									</g>
								</g>
							</g>
						</g>
					</g>
				</g>
			</g>
			<g id="XMLID_10_">
				<g>
					<g>
						<g>
							<g>
								<g>
									<g>
										<g>
											<g>
												<g>
													<g>
														<g>
															<path style="fill:#1D262D;" d="M301.618,471.757c0,0.222-0.015,0.489-0.037,0.651h-5.085
																c0.207,1.036,0.932,1.488,1.843,1.488c0.622,0,1.295-0.252,1.814-0.688l1.132,1.243
																c-0.814,0.748-1.85,1.088-3.057,1.088c-2.198,0-3.723-1.495-3.723-3.753c0-2.258,1.48-3.797,3.627-3.797
																C300.197,467.99,301.611,469.522,301.618,471.757z M296.504,471.091h3.175c-0.178-0.918-0.733-1.436-1.562-1.436
																C297.207,469.655,296.674,470.203,296.504,471.091z"/>
														</g>
													</g>
												</g>
											</g>
										</g>
									</g>
								</g>
							</g>
						</g>
					</g>
				</g>
			</g>
			<g id="XMLID_7_">
				<g>
					<g>
						<g>
							<g>
								<g>
									<g>
										<g>
											<g>
												<g>
													<g>
														<g>
															<path style="fill:#1D262D;" d="M309.964,471.764c0,2.154-1.495,3.775-3.471,3.775c-0.962,0-1.643-0.378-2.109-0.933
																v3.708h-1.924v-10.133h1.887v0.792c0.466-0.585,1.155-0.984,2.139-0.984
																C308.469,467.99,309.964,469.61,309.964,471.764z M304.287,471.764c0,1.132,0.747,1.976,1.843,1.976
																c1.14,0,1.85-0.881,1.85-1.976c0-1.095-0.711-1.976-1.85-1.976C305.035,469.788,304.287,470.632,304.287,471.764z"/>
														</g>
													</g>
												</g>
											</g>
										</g>
									</g>
								</g>
							</g>
						</g>
					</g>
				</g>
			</g>
			<g id="XMLID_4_">
				<g>
					<g>
						<g>
							<g>
								<g>
									<g>
										<g>
											<g>
												<g>
													<g>
														<g>
															<path style="fill:#1D262D;" d="M313.067,465.836c0,0.696-0.54,1.229-1.236,1.229c-0.696,0-1.229-0.533-1.229-1.229
																c0-0.696,0.533-1.243,1.229-1.243C312.527,464.592,313.067,465.14,313.067,465.836z M312.809,475.354h-1.932v-7.172
																h1.932V475.354z"/>
														</g>
													</g>
												</g>
											</g>
										</g>
									</g>
								</g>
							</g>
						</g>
					</g>
				</g>
			</g>
			<g id="XMLID_2_">
				<g>
					<g>
						<g>
							<g>
								<g>
									<g>
										<g>
											<g>
												<g>
													<g>
														<g>
															<path style="fill:#1D262D;" d="M316.032,470.736l2.702-2.554h2.368l-3.479,3.375l3.501,3.797h-2.376l-2.716-2.901
																v2.901H314.1v-10.658h1.932V470.736z"/>
														</g>
													</g>
												</g>
											</g>
										</g>
									</g>
								</g>
							</g>
						</g>
					</g>
				</g>
			</g>
		</g>
		<g>
			<g>
				<g>
					<g>
						<g>
							<g>
								<g>
									<g>
										<g>
											<g>
												<g>
													<g>
														<g>
															<path style="fill:#1D262D;" d="M184.412,475.289v-1.055c-0.527,0.718-1.391,1.23-2.387,1.23
																c-1.846,0-3.149-1.406-3.149-3.706c0-2.256,1.289-3.721,3.149-3.721c0.952,0,1.816,0.469,2.387,1.245v-3.765h1.099
																v9.77H184.412z M184.412,473.37v-3.208c-0.395-0.615-1.245-1.143-2.124-1.143c-1.421,0-2.27,1.172-2.27,2.739
																c0,1.567,0.85,2.724,2.27,2.724C183.168,474.483,184.017,473.986,184.412,473.37z"/>
														</g>
													</g>
												</g>
											</g>
										</g>
									</g>
								</g>
							</g>
						</g>
					</g>
				</g>
			</g>
			<g>
				<g>
					<g>
						<g>
							<g>
								<g>
									<g>
										<g>
											<g>
												<g>
													<g>
														<g>
															<path style="fill:#1D262D;" d="M186.932,471.744c0-2.051,1.465-3.706,3.486-3.706c2.139,0,3.398,1.67,3.398,3.794
																v0.279h-5.727c0.088,1.333,1.025,2.446,2.549,2.446c0.805,0,1.626-0.322,2.182-0.894l0.527,0.718
																c-0.703,0.703-1.655,1.084-2.812,1.084C188.44,475.465,186.932,473.956,186.932,471.744z M190.403,468.947
																c-1.509,0-2.256,1.274-2.314,2.358h4.643C192.718,470.25,192.015,468.947,190.403,468.947z"/>
														</g>
													</g>
												</g>
											</g>
										</g>
									</g>
								</g>
							</g>
						</g>
					</g>
				</g>
			</g>
			<g>
				<g>
					<g>
						<g>
							<g>
								<g>
									<g>
										<g>
											<g>
												<g>
													<g>
														<g>
															<path style="fill:#1D262D;" d="M194.607,474.351l0.571-0.791c0.469,0.542,1.362,1.011,2.329,1.011
																c1.084,0,1.67-0.513,1.67-1.216c0-1.714-4.38-0.659-4.38-3.281c0-1.098,0.952-2.036,2.636-2.036
																c1.201,0,2.051,0.454,2.622,1.026l-0.513,0.762c-0.424-0.513-1.201-0.894-2.109-0.894
																c-0.967,0-1.567,0.483-1.567,1.113c0,1.552,4.38,0.527,4.38,3.281c0,1.187-0.952,2.138-2.783,2.138
																C196.306,475.465,195.325,475.113,194.607,474.351z"/>
														</g>
													</g>
												</g>
											</g>
										</g>
									</g>
								</g>
							</g>
						</g>
					</g>
				</g>
			</g>
			<g>
				<g>
					<g>
						<g>
							<g>
								<g>
									<g>
										<g>
											<g>
												<g>
													<g>
														<g>
															<path style="fill:#1D262D;" d="M201.477,466.471c0-0.41,0.337-0.747,0.732-0.747c0.41,0,0.747,0.337,0.747,0.747
																c0,0.41-0.337,0.732-0.747,0.732C201.814,467.203,201.477,466.881,201.477,466.471z M201.667,475.289v-7.075h1.099
																v7.075H201.667z"/>
														</g>
													</g>
												</g>
											</g>
										</g>
									</g>
								</g>
							</g>
						</g>
					</g>
				</g>
			</g>
			<g>
				<g>
					<g>
						<g>
							<g>
								<g>
									<g>
										<g>
											<g>
												<g>
													<g>
														<g>
															<path style="fill:#1D262D;" d="M204.582,477.105l0.556-0.82c0.586,0.703,1.289,0.967,2.3,0.967
																c1.172,0,2.27-0.571,2.27-2.124v-1.011c-0.513,0.718-1.377,1.26-2.373,1.26c-1.845,0-3.149-1.377-3.149-3.662
																c0-2.27,1.289-3.677,3.149-3.677c0.952,0,1.802,0.469,2.373,1.245v-1.069h1.098v6.87
																c0,2.344-1.641,3.076-3.369,3.076C206.237,478.16,205.417,477.926,204.582,477.105z M209.709,473.253v-3.091
																c-0.381-0.615-1.23-1.143-2.109-1.143c-1.421,0-2.27,1.128-2.27,2.695c0,1.553,0.849,2.695,2.27,2.695
																C208.478,474.41,209.328,473.868,209.709,473.253z"/>
														</g>
													</g>
												</g>
											</g>
										</g>
									</g>
								</g>
							</g>
						</g>
					</g>
				</g>
			</g>
			<g>
				<g>
					<g>
						<g>
							<g>
								<g>
									<g>
										<g>
											<g>
												<g>
													<g>
														<g>
															<path style="fill:#1D262D;" d="M217.413,475.289v-4.629c0-1.245-0.63-1.641-1.582-1.641
																c-0.865,0-1.685,0.527-2.095,1.099v5.17h-1.099v-7.075h1.099v1.025c0.498-0.586,1.465-1.201,2.519-1.201
																c1.48,0,2.256,0.747,2.256,2.285v4.966H217.413z"/>
														</g>
													</g>
												</g>
											</g>
										</g>
									</g>
								</g>
							</g>
						</g>
					</g>
				</g>
			</g>
			<g>
				<g>
					<g>
						<g>
							<g>
								<g>
									<g>
										<g>
											<g>
												<g>
													<g>
														<g>
															<path style="fill:#1D262D;" d="M219.932,471.744c0-2.051,1.465-3.706,3.486-3.706c2.139,0,3.398,1.67,3.398,3.794
																v0.279h-5.727c0.088,1.333,1.025,2.446,2.549,2.446c0.806,0,1.626-0.322,2.183-0.894l0.527,0.718
																c-0.703,0.703-1.655,1.084-2.812,1.084C221.441,475.465,219.932,473.956,219.932,471.744z M223.404,468.947
																c-1.509,0-2.256,1.274-2.314,2.358h4.643C225.718,470.25,225.015,468.947,223.404,468.947z"/>
														</g>
													</g>
												</g>
											</g>
										</g>
									</g>
								</g>
							</g>
						</g>
					</g>
				</g>
			</g>
			<g>
				<g>
					<g>
						<g>
							<g>
								<g>
									<g>
										<g>
											<g>
												<g>
													<g>
														<g>
															<path style="fill:#1D262D;" d="M233.35,475.289v-1.055c-0.527,0.718-1.392,1.23-2.388,1.23
																c-1.846,0-3.149-1.406-3.149-3.706c0-2.256,1.289-3.721,3.149-3.721c0.952,0,1.817,0.469,2.388,1.245v-3.765h1.098
																v9.77H233.35z M233.35,473.37v-3.208c-0.396-0.615-1.245-1.143-2.124-1.143c-1.421,0-2.27,1.172-2.27,2.739
																c0,1.567,0.849,2.724,2.27,2.724C232.105,474.483,232.954,473.986,233.35,473.37z"/>
														</g>
													</g>
												</g>
											</g>
										</g>
									</g>
								</g>
							</g>
						</g>
					</g>
				</g>
			</g>
			<g>
				<g>
					<g>
						<g>
							<g>
								<g>
									<g>
										<g>
											<g>
												<g>
													<g>
														<g>
															<path style="fill:#1D262D;" d="M239.692,475.289v-9.77h1.098v3.765c0.572-0.776,1.421-1.245,2.388-1.245
																c1.845,0,3.149,1.465,3.149,3.721c0,2.299-1.304,3.706-3.149,3.706c-0.996,0-1.86-0.513-2.388-1.23v1.055H239.692z
																 M242.9,474.483c1.436,0,2.285-1.157,2.285-2.724c0-1.568-0.85-2.739-2.285-2.739c-0.864,0-1.728,0.527-2.109,1.143
																v3.208C241.171,473.986,242.036,474.483,242.9,474.483z"/>
														</g>
													</g>
												</g>
											</g>
										</g>
									</g>
								</g>
							</g>
						</g>
					</g>
				</g>
			</g>
			<g>
				<g>
					<g>
						<g>
							<g>
								<g>
									<g>
										<g>
											<g>
												<g>
													<g>
														<g>
															<path style="fill:#1D262D;" d="M247.528,477.061c0.161,0.073,0.425,0.117,0.601,0.117
																c0.483,0,0.805-0.161,1.055-0.747l0.469-1.069l-2.959-7.148h1.187l2.358,5.8l2.344-5.8h1.201l-3.545,8.51
																c-0.425,1.025-1.143,1.421-2.08,1.435c-0.234,0-0.601-0.044-0.806-0.103L247.528,477.061z"/>
														</g>
													</g>
												</g>
											</g>
										</g>
									</g>
								</g>
							</g>
						</g>
					</g>
				</g>
			</g>
		</g>
	</g>
</g>
</svg>
